<svg width="22" height="22" viewBox="0 0 22 22" fill="none" xmlns="http://www.w3.org/2000/svg">
<path d="M21.8018 4.84664C21.3664 4.0338 20.3543 3.72783 19.5415 4.16333C18.5673 4.68518 17.647 5.22248 16.7671 5.78492L16.7672 3.52034C16.7672 3.02071 16.3633 2.61523 15.8622 2.61523H0.903473C0.404723 2.61523 0 3.02075 0 3.52034V18.4788C0 18.9775 0.404679 19.3831 0.903473 19.3831H15.8614C16.3625 19.3831 16.7666 18.9775 16.7666 18.4788L16.767 9.82813C18.0959 8.84923 19.5189 7.96382 21.1184 7.10694C21.9313 6.67148 22.2372 5.65954 21.8018 4.84664ZM14.9586 17.5729H1.80933V4.42527H14.9586V7.01839C13.1604 8.32782 11.5128 9.7901 9.88701 11.5089C9.69307 11.2522 9.49979 10.995 9.30718 10.7373C8.89406 10.1857 8.42574 9.56045 7.87735 8.85453C7.3116 8.12639 6.26265 7.99473 5.53443 8.56043C4.80624 9.12622 4.67454 10.1752 5.24033 10.9034C5.77062 11.586 6.2097 12.1722 6.6343 12.7391C7.24558 13.5553 7.82298 14.3263 8.50908 15.158C8.66345 15.3452 8.85674 15.4964 9.0755 15.6012C9.29426 15.7061 9.53324 15.762 9.77581 15.7651C10.0184 15.7682 10.2587 15.7184 10.4801 15.6191C10.7014 15.5199 10.8985 15.3736 11.0576 15.1905C12.3596 13.6916 13.6279 12.4102 14.9586 11.2675V17.5729Z" fill="#F77761"/>
</svg>
