<svg width="91" height="28" viewBox="0 0 91 28" fill="none" xmlns="http://www.w3.org/2000/svg">
<g clip-path="url(#clip0_129_4198)">
<path d="M26.2987 19.8442C26.1576 19.503 26.0252 19.1442 25.884 18.838L25.2311 17.3767L25.2046 17.3505C23.2634 13.1505 21.1899 8.88047 18.9929 4.68047L18.9046 4.50547C18.684 4.09422 18.4634 3.63922 18.234 3.21922C17.9517 2.72047 17.6782 2.18672 17.2282 1.67922C16.7895 1.14821 16.2375 0.720384 15.6119 0.426617C14.9863 0.13285 14.3027 -0.0195312 13.6105 -0.0195312C12.9183 -0.0195312 12.2347 0.13285 11.6091 0.426617C10.9835 0.720384 10.4315 1.14821 9.99286 1.67922C9.57815 2.18672 9.26933 2.72047 8.98698 3.21922C8.76639 3.67422 8.5458 4.12047 8.31639 4.53172L8.22815 4.70672C6.06639 8.90672 3.95757 13.1767 2.01639 17.3767L1.96345 17.4292C1.76933 17.8842 1.53992 18.3567 1.31933 18.8642C1.17815 19.1705 1.03698 19.503 0.895802 19.8705C0.514654 20.8328 0.392942 21.877 0.54266 22.9001C0.692378 23.9233 1.10836 24.8901 1.74961 25.7053C2.39085 26.5205 3.23523 27.1559 4.19953 27.549C5.16383 27.942 6.21475 28.0791 7.24874 27.9467C8.24004 27.8173 9.19457 27.4899 10.0546 26.9842C11.2017 26.3455 12.3046 25.418 13.5399 24.0792C14.7752 25.418 15.9046 26.3455 17.0252 26.993C18.1028 27.6202 19.3232 27.9664 20.5723 27.9992C22.0188 28.0052 23.4186 27.492 24.5133 26.5543C25.608 25.6167 26.3237 24.318 26.5282 22.898C26.7645 21.8775 26.6845 20.8101 26.2987 19.8355V19.8442ZM13.6282 21.2967C12.1105 19.3717 11.1223 17.6042 10.787 16.0905C10.6481 15.5295 10.6181 14.9475 10.6987 14.3755C10.7605 13.9292 10.9282 13.5355 11.1576 13.203C11.687 12.4417 12.6134 11.9692 13.6282 11.9692C14.11 11.9546 14.588 12.0589 15.0192 12.2727C15.4505 12.4865 15.8214 12.8032 16.0987 13.1942C16.3282 13.5442 16.4958 13.9292 16.5487 14.3755C16.637 14.883 16.6017 15.4692 16.4605 16.0905C16.1252 17.578 15.137 19.363 13.6282 21.2967ZM24.8693 22.5917C24.7691 23.3127 24.4801 23.995 24.0311 24.5707C23.5822 25.1464 22.9889 25.5954 22.3105 25.873C21.6399 26.153 20.8987 26.2317 20.1752 26.153C19.4693 26.0655 18.7634 25.838 18.0399 25.418C16.8386 24.6817 15.7584 23.7668 14.837 22.7055C16.6899 20.4305 17.8105 18.3567 18.234 16.5105C18.437 15.6355 18.4634 14.848 18.3752 14.1217C18.265 13.4333 18.0062 12.7767 17.6164 12.1967C17.1713 11.5678 16.5773 11.057 15.8865 10.7091C15.1957 10.3613 14.4293 10.187 13.6546 10.2017C12.0223 10.2017 10.5664 10.9542 9.68404 12.188C9.28684 12.7665 9.03013 13.4284 8.93404 14.1217C8.81933 14.8567 8.8458 15.6705 9.07521 16.5105C9.49874 18.3567 10.6458 20.4567 12.4723 22.723C11.5665 23.8046 10.4838 24.7275 9.26933 25.453C8.53698 25.873 7.83992 26.0917 7.13404 26.1792C6.03629 26.3187 4.9274 26.0228 4.04841 25.3559C3.16942 24.6891 2.59138 23.7051 2.43992 22.618C2.35168 21.918 2.41345 21.218 2.6958 20.4305C2.78404 20.1505 2.91639 19.8705 3.05757 19.538C3.25168 19.083 3.4811 18.6105 3.70168 18.138L3.73698 18.0767C5.64286 13.903 7.72521 9.64172 9.88698 5.46797L9.97521 5.29297C10.1958 4.87297 10.4164 4.42672 10.6458 4.00672C10.8752 3.56047 11.1223 3.13172 11.4399 2.78172C11.7149 2.45624 12.0584 2.19448 12.4464 2.01488C12.8344 1.83528 13.2573 1.74221 13.6855 1.74221C14.1137 1.74221 14.5366 1.83528 14.9246 2.01488C15.3126 2.19448 15.6561 2.45624 15.9311 2.78172C16.2399 3.13172 16.4958 3.56047 16.7252 4.00672C16.9458 4.42672 17.1664 4.88172 17.3958 5.29297L17.484 5.46797C19.637 9.64172 21.7193 13.903 23.6605 18.0767L23.687 18.103C23.9164 18.558 24.1105 19.0655 24.3311 19.503C24.4723 19.8442 24.6134 20.1155 24.7017 20.4042C24.8693 21.1917 24.9576 21.8917 24.8693 22.5917ZM37.1517 21.1042C36.4868 21.1139 35.8283 20.9749 35.2249 20.6977C34.6215 20.4205 34.0889 20.0122 33.6664 19.503C32.717 18.4179 32.2132 17.0189 32.2546 15.583C32.2401 14.1158 32.7602 12.6927 33.7193 11.5755C34.163 11.0598 34.7152 10.6468 35.3372 10.3656C35.9592 10.0844 36.6358 9.94184 37.3193 9.94797C37.9625 9.93051 38.5996 10.0755 39.1707 10.3694C39.7418 10.6633 40.2282 11.0964 40.584 11.628L40.6723 10.2542H43.2487V20.8242H40.6634L40.5752 19.2842C40.2083 19.8518 39.7012 20.3169 39.102 20.6355C38.5028 20.954 37.8314 21.1154 37.1517 21.1042ZM37.8223 18.5842C38.334 18.5842 38.784 18.4442 39.2076 18.1905C39.5958 17.9105 39.9134 17.543 40.1605 17.0967C40.3811 16.6505 40.4958 16.1167 40.4958 15.5217C40.5302 15.0049 40.4288 14.4882 40.2014 14.0219C39.9741 13.5556 39.6286 13.1559 39.1987 12.8617C38.7857 12.6065 38.3089 12.4713 37.8223 12.4713C37.3357 12.4713 36.8588 12.6065 36.4458 12.8617C36.0576 13.1417 35.7399 13.5092 35.4929 13.9555C35.2595 14.4476 35.1447 14.9868 35.1576 15.5305C35.1232 16.0472 35.2246 16.564 35.452 17.0303C35.6793 17.4965 36.0248 17.8963 36.4546 18.1905C36.8693 18.4442 37.3193 18.5842 37.8223 18.5842ZM47.6605 7.40172C47.6605 7.70797 47.6076 7.98797 47.4664 8.21547C47.3252 8.43422 47.1311 8.63547 46.8752 8.77547C46.6193 8.91547 46.3458 8.96797 46.0634 8.96797C45.7811 8.96797 45.4987 8.91547 45.2429 8.77547C45.0009 8.64187 44.7973 8.44909 44.6517 8.21547C44.515 7.96621 44.448 7.68527 44.4576 7.40172C44.4576 7.08672 44.5193 6.80672 44.6517 6.58797C44.7929 6.32547 44.9958 6.16797 45.2429 6.02797C45.4987 5.88797 45.7723 5.82672 46.0634 5.82672C46.3443 5.8203 46.622 5.88627 46.8695 6.01816C47.117 6.15006 47.3257 6.34338 47.4752 6.57922C47.6036 6.83432 47.6672 7.11668 47.6605 7.40172ZM44.6605 20.7892V10.2367H47.4664V20.8067H44.6517L44.6605 20.7892ZM54.9664 13.0017V13.0367C54.834 12.9755 54.6576 12.9492 54.5252 12.923C54.3487 12.888 54.2076 12.888 54.0399 12.888C53.2546 12.888 52.6634 13.1155 52.2752 13.588C51.8517 14.0692 51.6576 14.743 51.6576 15.6092V20.798H48.8429V10.228H51.4282L51.5164 11.8292C51.7987 11.2692 52.134 10.8492 52.6105 10.5342C53.0844 10.2282 53.6424 10.0753 54.2076 10.0967C54.4105 10.0967 54.6046 10.1142 54.7723 10.1492C54.8605 10.1755 54.9134 10.1755 54.9664 10.2017V13.0017ZM56.0958 20.7892V5.89672H58.9017V11.5842C59.2987 11.0767 59.7487 10.683 60.3134 10.3767C61.2074 9.94205 62.223 9.81875 63.1964 10.0267C64.1697 10.2347 65.044 10.7618 65.6782 11.523C66.6296 12.6102 67.1336 14.0128 67.0899 15.4517C67.1044 16.9189 66.5843 18.342 65.6252 19.4592C65.1816 19.9749 64.6293 20.3879 64.0073 20.6691C63.3853 20.9503 62.7088 21.0928 62.0252 21.0867C61.382 21.1042 60.7449 20.9591 60.1738 20.6653C59.6027 20.3714 59.1164 19.9383 58.7605 19.4067L58.6723 20.7805L56.0958 20.8067V20.7892ZM61.5223 18.5842C62.0252 18.5842 62.4752 18.4442 62.8987 18.1905C63.287 17.9105 63.6046 17.543 63.8517 17.0967C64.0811 16.6505 64.187 16.1167 64.187 15.5217C64.187 14.9355 64.0811 14.4017 63.8517 13.9555C63.62 13.5252 63.2944 13.1515 62.8987 12.8617C62.4857 12.6065 62.0089 12.4713 61.5223 12.4713C61.0357 12.4713 60.5588 12.6065 60.1458 12.8617C59.7487 13.1417 59.4399 13.5092 59.184 13.9555C58.9507 14.4476 58.8359 14.9868 58.8487 15.5305C58.8143 16.0472 58.9158 16.564 59.1431 17.0303C59.3705 17.4965 59.716 17.8963 60.1458 18.1905C60.5605 18.4442 61.0105 18.5842 61.5223 18.5842ZM68.1487 20.798V10.228H70.734L70.8223 11.6017C71.1471 11.0751 71.608 10.6442 72.1572 10.3534C72.7063 10.0627 73.3238 9.9227 73.9458 9.94797C74.6571 9.93579 75.3562 10.1318 75.9557 10.5116C76.5552 10.8913 77.0285 11.4379 77.3164 12.083C77.6252 12.748 77.7929 13.5705 77.7929 14.4892V20.8242H74.9782V14.8567C74.9782 14.1217 74.8105 13.5442 74.4752 13.1155C74.1399 12.6955 73.6811 12.468 73.0987 12.468C72.6752 12.468 72.3046 12.5555 71.9782 12.748C71.6693 12.9492 71.4135 13.203 71.2193 13.5617C71.0231 13.9244 70.9257 14.3316 70.937 14.743V20.798H68.1487ZM79.1958 20.798V5.88797H82.0105V11.5755C82.3918 11.0651 82.8877 10.65 83.459 10.3629C84.0303 10.0758 84.6612 9.92477 85.3017 9.92172C85.9666 9.91207 86.6251 10.051 87.2285 10.3282C87.8318 10.6054 88.3645 11.0138 88.787 11.523C89.7316 12.6102 90.2321 14.0085 90.1899 15.443C90.2052 16.9103 89.685 18.3336 88.7252 19.4505C88.2816 19.9662 87.7293 20.3792 87.1073 20.6604C86.4853 20.9415 85.8088 21.0841 85.1252 21.078C84.482 21.0954 83.8449 20.9504 83.2738 20.6565C82.7027 20.3626 82.2164 19.9295 81.8605 19.398L81.7811 20.7717L79.1958 20.798ZM84.6487 18.5842C85.1605 18.5842 85.6105 18.4442 86.0252 18.1905C86.4223 17.9105 86.7311 17.543 86.987 17.0967C87.2076 16.6505 87.3223 16.1167 87.3223 15.5217C87.3567 15.0049 87.2552 14.4882 87.0279 14.0219C86.8005 13.5556 86.455 13.1559 86.0252 12.8617C85.6122 12.6065 85.1354 12.4713 84.6487 12.4713C84.1621 12.4713 83.6853 12.6065 83.2723 12.8617C82.884 13.1417 82.5664 13.5092 82.3193 13.9555C82.073 14.4432 81.9576 14.9856 81.984 15.5305C81.9496 16.0472 82.0511 16.564 82.2784 17.0303C82.5058 17.4965 82.8513 17.8963 83.2811 18.1905C83.6958 18.4442 84.1193 18.5842 84.6487 18.5842Z" fill="#FF385C"/>
</g>
<defs>
<clipPath id="clip0_129_4198">
<rect width="90" height="28" fill="white" transform="translate(0.5)"/>
</clipPath>
</defs>
</svg>
