<svg width="85" height="28" viewBox="0 0 85 28" fill="none" xmlns="http://www.w3.org/2000/svg">
<g clip-path="url(#clip0_129_4211)">
<path d="M36.2466 14.3598C36.2466 18.2463 33.1614 21.1102 29.3752 21.1102C25.5891 21.1102 22.5039 18.2463 22.5039 14.3598C22.5039 10.4459 25.5891 7.60938 29.3752 7.60938C33.1614 7.60938 36.2466 10.4459 36.2466 14.3598ZM33.2386 14.3598C33.2386 11.9311 31.4505 10.2694 29.3752 10.2694C27.2999 10.2694 25.5118 11.9311 25.5118 14.3598C25.5118 16.7642 27.2999 18.4502 29.3752 18.4502C31.4505 18.4502 33.2386 16.7611 33.2386 14.3598Z" fill="#EA4335"/>
<path d="M51.0708 14.3598C51.0708 18.2463 47.9856 21.1102 44.1994 21.1102C40.4133 21.1102 37.3281 18.2463 37.3281 14.3598C37.3281 10.4489 40.4133 7.60938 44.1994 7.60938C47.9856 7.60938 51.0708 10.4459 51.0708 14.3598ZM48.0628 14.3598C48.0628 11.9311 46.2747 10.2694 44.1994 10.2694C42.1242 10.2694 40.3361 11.9311 40.3361 14.3598C40.3361 16.7642 42.1242 18.4502 44.1994 18.4502C46.2747 18.4502 48.0628 16.7611 48.0628 14.3598Z" fill="#FBBC05"/>
<path d="M65.2757 8.0172V20.1363C65.2757 25.1215 62.2925 27.1576 58.7657 27.1576C55.4459 27.1576 53.4478 24.9694 52.6942 23.1798L55.3131 22.1055C55.7794 23.2042 56.922 24.5007 58.7626 24.5007C61.0201 24.5007 62.4191 23.1281 62.4191 20.5442V19.5733H62.3141C61.6409 20.392 60.3438 21.1072 58.707 21.1072C55.2822 21.1072 52.1445 18.1672 52.1445 14.3842C52.1445 10.5737 55.2822 7.60938 58.707 7.60938C60.3407 7.60938 61.6378 8.32459 62.3141 9.11894H62.4191V8.02024H65.2757V8.0172ZM62.6322 14.3842C62.6322 12.0072 61.0232 10.2694 58.9757 10.2694C56.9004 10.2694 55.1617 12.0072 55.1617 14.3842C55.1617 16.7368 56.9004 18.4502 58.9757 18.4502C61.0232 18.4502 62.6322 16.7368 62.6322 14.3842Z" fill="#4285F4"/>
<path d="M69.9846 0.912109V20.6947H67.0508V0.912109H69.9846Z" fill="#34A853"/>
<path d="M81.4196 16.5807L83.7543 18.1146C83.0007 19.2133 81.1849 21.1063 78.0472 21.1063C74.156 21.1063 71.25 18.142 71.25 14.3559C71.25 10.3416 74.1807 7.60547 77.7106 7.60547C81.2651 7.60547 83.0038 10.3933 83.5721 11.8998L83.884 12.6668L74.7274 16.4042C75.4284 17.7585 76.5185 18.4494 78.0472 18.4494C79.579 18.4494 80.6413 17.7068 81.4196 16.5807ZM74.2332 14.152L80.3541 11.6472C80.0175 10.8042 79.0046 10.2168 77.8125 10.2168C76.2838 10.2168 74.156 11.5468 74.2332 14.152Z" fill="#EA4335"/>
<path d="M11.3966 12.6026V9.73866H21.1894C21.2851 10.2378 21.3345 10.8282 21.3345 11.4674C21.3345 13.6161 20.7385 16.273 18.8176 18.1661C16.9492 20.0834 14.562 21.1061 11.3997 21.1061C5.5382 21.1061 0.609375 16.4008 0.609375 10.6243C0.609375 4.8478 5.5382 0.142578 11.3997 0.142578C14.6423 0.142578 16.9523 1.39649 18.6879 3.03084L16.6373 5.05171C15.3928 3.90127 13.7066 3.00649 11.3966 3.00649C7.11629 3.00649 3.76864 6.40606 3.76864 10.6243C3.76864 14.8426 7.11629 18.2421 11.3966 18.2421C14.1729 18.2421 15.7541 17.1434 16.767 16.1452C17.5885 15.3356 18.1289 14.1791 18.342 12.5995L11.3966 12.6026Z" fill="#4285F4"/>
</g>
<defs>
<clipPath id="clip0_129_4211">
<rect width="84" height="28" fill="white" transform="translate(0.5)"/>
</clipPath>
</defs>
</svg>
