<svg width="85" height="24" viewBox="0 0 85 24" fill="none" xmlns="http://www.w3.org/2000/svg">
<g clip-path="url(#clip0_129_4200)">
<path d="M9.59675 3.97266V10.7424H3.42846V3.97266H0.5V20.1327H3.42846V13.5828H9.59675V20.1327H12.5252V3.97266H9.59675Z" fill="#33475B"/>
<path d="M21.8966 14.9099C21.8966 15.5575 21.6414 16.1786 21.187 16.6366C20.7327 17.0946 20.1165 17.3518 19.4739 17.3518C18.8314 17.3518 18.2152 17.0946 17.7608 16.6366C17.3065 16.1786 17.0512 15.5575 17.0512 14.9099V7.98828H14.2734V14.9099C14.2734 16.2988 14.8208 17.6308 15.7952 18.6128C16.7695 19.5949 18.091 20.1466 19.4689 20.1466C20.8468 20.1466 22.1683 19.5949 23.1427 18.6128C24.117 17.6308 24.6644 16.2988 24.6644 14.9099V7.98828H21.8966V14.9099Z" fill="#33475B"/>
<path d="M42.4797 8.70035C42.4797 7.28161 43.4109 6.83183 44.431 6.83183C45.2532 6.83183 46.3394 7.46238 47.0496 8.22743L48.8689 6.06678C47.9607 4.82882 46.1184 3.97266 44.6104 3.97266C41.5973 3.97266 39.4178 5.75151 39.4178 8.70035C39.4178 14.1714 46.0524 12.4359 46.0524 15.4976C46.0524 16.442 45.1427 17.2764 44.101 17.2764C42.4582 17.2764 41.9259 16.4665 41.1711 15.6104L39.1523 17.7262C40.4437 19.3243 42.0363 20.1356 43.9446 20.1356C46.8071 20.1356 49.11 18.3351 49.11 15.5207C49.11 9.44659 42.4754 11.3339 42.4754 8.70035" fill="#33475B"/>
<path d="M83.522 17.5522C81.8805 17.5522 81.4142 16.8363 81.4142 15.7401V10.888H83.9653V8.42942H81.4142V5.18555L78.5977 6.45967V16.3431C78.5977 18.8711 80.328 20.1452 82.7012 20.1452C83.0734 20.1521 83.4454 20.122 83.8118 20.0556L84.4991 17.5059C84.1891 17.5276 83.8333 17.5493 83.522 17.5493" fill="#33475B"/>
<path d="M32.4721 8.06911C31.0961 8.06911 30.1362 8.47116 29.2079 9.3895V4.07031H26.4258V13.9292C26.4258 17.6199 29.073 20.1479 32.0474 20.1479C35.3475 20.1479 38.2501 17.5751 38.2501 14.11C38.2501 10.6882 35.5785 8.07055 32.4721 8.07055V8.06911ZM32.4549 17.3264C31.8306 17.3264 31.2203 17.1398 30.7012 16.7901C30.1821 16.4405 29.7775 15.9436 29.5386 15.3622C29.2997 14.7809 29.2371 14.1411 29.3589 13.524C29.4807 12.9068 29.7814 12.3398 30.2228 11.8949C30.6643 11.4499 31.2267 11.1469 31.8391 11.0241C32.4514 10.9014 33.0861 10.9644 33.6629 11.2052C34.2397 11.446 34.7327 11.8538 35.0795 12.377C35.4264 12.9002 35.6115 13.5154 35.6115 14.1447C35.6115 14.9885 35.2789 15.7978 34.6869 16.3945C34.095 16.9911 33.2921 17.3264 32.4549 17.3264Z" fill="#33475B"/>
<path d="M62.6798 13.9618C62.6798 10.4909 59.7829 7.92383 56.4771 7.92383C53.5027 7.92383 50.8555 10.4518 50.8555 14.1426V24.0072H53.6376V18.6808C54.5645 19.5977 55.5258 20.0012 56.9004 20.0012C60.0067 20.0012 62.6784 17.385 62.6784 13.9618H62.6798ZM60.0455 13.9271C60.0455 14.5564 59.8603 15.1715 59.5135 15.6947C59.1666 16.2179 58.6736 16.6258 58.0969 16.8666C57.5201 17.1074 56.8854 17.1704 56.2731 17.0476C55.6607 16.9249 55.0983 16.6218 54.6568 16.1769C54.2154 15.7319 53.9147 15.165 53.7929 14.5478C53.6711 13.9306 53.7336 13.2909 53.9726 12.7095C54.2115 12.1281 54.6161 11.6312 55.1352 11.2816C55.6543 10.932 56.2646 10.7454 56.8889 10.7454C57.7261 10.7454 58.5289 11.0806 59.1209 11.6773C59.7129 12.274 60.0455 13.0832 60.0455 13.9271Z" fill="#33475B"/>
<path d="M71.6666 7.78738V4.97015C72.036 4.79618 72.3488 4.52005 72.5685 4.1739C72.7882 3.82774 72.9059 3.4258 72.9077 3.01486V2.94978C72.9077 2.37444 72.681 1.82266 72.2774 1.41583C71.8738 1.009 71.3263 0.780451 70.7555 0.780451H70.691C70.1202 0.780451 69.5727 1.009 69.1691 1.41583C68.7655 1.82266 68.5387 2.37444 68.5387 2.94978V3.01486C68.5406 3.4258 68.6583 3.82774 68.878 4.1739C69.0977 4.52005 69.4105 4.79618 69.7798 4.97015V7.78738C68.7182 7.95108 67.7184 8.39462 66.8815 9.07307L59.2167 3.05535C59.271 2.85691 59.2999 2.65231 59.3028 2.44649C59.3037 1.96303 59.1622 1.49018 58.8964 1.08774C58.6306 0.685302 58.2524 0.371358 57.8096 0.18562C57.3667 -0.00011926 56.8792 -0.0493087 56.4086 0.0442731C55.938 0.137855 55.5056 0.370004 55.1659 0.711356C54.8262 1.05271 54.5946 1.48793 54.5004 1.96197C54.4061 2.436 54.4535 2.92756 54.6365 3.37447C54.8194 3.82137 55.1298 4.20355 55.5283 4.47265C55.9267 4.74175 56.3954 4.88569 56.8751 4.88627C57.2945 4.88438 57.7061 4.77168 58.0689 4.55942L65.6174 10.4788C64.9392 11.5114 64.5853 12.7259 64.6019 13.9642C64.6186 15.2025 65.0049 16.407 65.7107 17.4206L63.415 19.7346C63.2293 19.6748 63.0359 19.6432 62.8411 19.6406C62.4473 19.6409 62.0625 19.7588 61.7352 19.9795C61.4079 20.2002 61.1529 20.5137 61.0023 20.8804C60.8517 21.2472 60.8124 21.6507 60.8893 22.0399C60.9662 22.4292 61.1558 22.7867 61.4343 23.0674C61.7127 23.348 62.0674 23.5391 62.4536 23.6166C62.8398 23.6941 63.2401 23.6545 63.604 23.5028C63.9678 23.351 64.2789 23.094 64.4978 22.7641C64.7167 22.4342 64.8337 22.0463 64.834 21.6494C64.8316 21.453 64.8001 21.258 64.7408 21.0709L67.0121 18.7815C67.7527 19.356 68.614 19.752 69.5298 19.9392C70.4457 20.1264 71.392 20.0998 72.2961 19.8614C73.2002 19.6231 74.0383 19.1794 74.746 18.5642C75.4537 17.9491 76.0124 17.1788 76.3792 16.3124C76.746 15.446 76.9112 14.5066 76.8621 13.5659C76.8131 12.6252 76.5511 11.7084 76.0962 10.8855C75.6414 10.0627 75.0057 9.35565 74.2379 8.81864C73.4701 8.28164 72.5906 7.92887 71.6666 7.78738ZM70.7254 17.0519C70.1041 17.0513 69.4969 16.8651 68.9806 16.5168C68.4642 16.1685 68.0619 15.6737 67.8245 15.095C67.5871 14.5163 67.5252 13.8797 67.6466 13.2655C67.7681 12.6514 68.0674 12.0873 68.5069 11.6446C68.9463 11.2019 69.506 10.9004 70.1154 10.7782C70.7248 10.6561 71.3564 10.7188 71.9304 10.9584C72.5044 11.198 72.9951 11.6037 73.3404 12.1243C73.6858 12.6449 73.8702 13.257 73.8705 13.8832C73.8705 14.7232 73.5395 15.5288 72.9502 16.1228C72.3609 16.7167 71.5616 17.0504 70.7283 17.0504" fill="#FF7A59"/>
</g>
<defs>
<clipPath id="clip0_129_4200">
<rect width="84" height="24" fill="white" transform="translate(0.5)"/>
</clipPath>
</defs>
</svg>
