<svg width="123" height="26" viewBox="0 0 123 26" fill="none" xmlns="http://www.w3.org/2000/svg">
<g clip-path="url(#clip0_129_4218)">
<path d="M43.5622 14.9748L42.835 17.0306H42.7744C42.6532 16.5671 42.431 15.8616 42.0675 15.0151L38.1691 5.23993H34.3516V20.8198H36.8764V11.2058C36.8764 10.6012 36.8764 9.9159 36.8562 9.06939C36.836 8.64613 36.7956 8.32365 36.7754 8.08179H36.836C36.9572 8.68644 37.0986 9.12985 37.1996 9.41202L41.8857 20.7795H43.6631L48.3088 9.31125C48.4098 9.04923 48.5108 8.5252 48.6118 8.08179H48.6724C48.6118 9.23063 48.5714 10.2585 48.5512 10.8833V20.7593H51.2377V5.19962H47.5615L43.5622 14.9748ZM53.7827 9.59342H56.4085V20.7593H53.7827V9.59342ZM55.1158 4.87714C54.6714 4.87714 54.3078 5.03838 54.0049 5.32055C53.7019 5.60272 53.5403 5.96551 53.5403 6.40892C53.5403 6.83218 53.7019 7.19497 54.0049 7.47714C54.3078 7.75931 54.6714 7.90039 55.1158 7.90039C55.5602 7.90039 55.9439 7.73915 56.2267 7.47714C56.5297 7.19497 56.6913 6.83218 56.6913 6.40892C56.6913 5.98566 56.5297 5.62287 56.2267 5.32055C55.9641 5.03838 55.5804 4.87714 55.1158 4.87714ZM65.7201 9.49264C65.2353 9.39187 64.7304 9.3314 64.2456 9.3314C63.0539 9.3314 61.9631 9.59342 61.0542 10.1174C60.1453 10.6415 59.4181 11.3671 58.9535 12.274C58.4688 13.2012 58.2264 14.2694 58.2264 15.4988C58.2264 16.5671 58.4688 17.5143 58.9333 18.381C59.3979 19.2275 60.0443 19.9128 60.9128 20.3764C61.741 20.8399 62.7105 21.0818 63.8012 21.0818C65.0535 21.0818 66.1241 20.8198 66.9724 20.3361L66.9926 20.3159V17.8973L66.8916 17.9779C66.5079 18.2601 66.0635 18.5019 65.6191 18.643C65.1545 18.8043 64.7304 18.8849 64.3668 18.8849C63.3165 18.8849 62.4883 18.5826 61.9026 17.9174C61.2966 17.2725 60.9936 16.3857 60.9936 15.2771C60.9936 14.1283 61.2966 13.2213 61.9228 12.5562C62.5489 11.8911 63.3771 11.5485 64.387 11.5485C65.2353 11.5485 66.1039 11.8306 66.8916 12.395L66.9926 12.4756V9.9159L66.9724 9.89574C66.629 9.75466 66.2453 9.59342 65.7201 9.49264ZM74.3853 9.41202C73.739 9.41202 73.133 9.61357 72.6078 10.0368C72.1635 10.3996 71.8605 10.9236 71.5979 11.5485H71.5777V9.59342H68.9519V20.7593H71.5777V15.0554C71.5777 14.088 71.7797 13.2818 72.2241 12.6973C72.6684 12.0926 73.234 11.7903 73.9208 11.7903C74.1631 11.7903 74.4055 11.8508 74.7085 11.8911C74.9913 11.9717 75.1933 12.0523 75.3347 12.1531L75.4357 12.2337V9.61357L75.3751 9.59342C75.1933 9.47249 74.8297 9.41202 74.3853 9.41202ZM81.5357 9.35156C79.6976 9.35156 78.2231 9.89574 77.1929 10.964C76.1426 12.0322 75.6376 13.5035 75.6376 15.3578C75.6376 17.0911 76.1628 18.5019 77.1727 19.5299C78.1827 20.5376 79.5562 21.0616 81.2731 21.0616C83.0708 21.0616 84.5049 20.5174 85.535 19.4291C86.5853 18.3407 87.0903 16.8895 87.0903 15.0957C87.0903 13.3221 86.6055 11.9112 85.6158 10.8833C84.6665 9.85543 83.2728 9.35156 81.5357 9.35156ZM83.6363 17.9376C83.1516 18.5624 82.384 18.8647 81.4347 18.8647C80.4853 18.8647 79.7178 18.5624 79.1724 17.8973C78.6271 17.2725 78.3645 16.3655 78.3645 15.2167C78.3645 14.0275 78.6473 13.1205 79.1724 12.4756C79.7178 11.8306 80.4651 11.5081 81.4145 11.5081C82.3436 11.5081 83.0708 11.8105 83.5959 12.4353C84.1211 13.0601 84.4039 13.9671 84.4039 15.1562C84.3635 16.3655 84.1413 17.3128 83.6363 17.9376ZM92.9479 14.2291C92.1198 13.8864 91.5946 13.6244 91.3522 13.4027C91.1502 13.2012 91.0492 12.919 91.0492 12.5562C91.0492 12.2539 91.1704 11.9516 91.4734 11.75C91.7764 11.5485 92.1198 11.4477 92.6247 11.4477C93.0691 11.4477 93.5337 11.5283 93.978 11.6492C94.4224 11.7702 94.8264 11.9516 95.1496 12.1934L95.2506 12.274V9.81512L95.19 9.79497C94.887 9.67404 94.483 9.55311 93.9982 9.45233C93.5135 9.37171 93.0691 9.3314 92.7055 9.3314C91.4532 9.3314 90.4231 9.63373 89.6151 10.2988C88.8072 10.9236 88.4234 11.7702 88.4234 12.7578C88.4234 13.2818 88.5042 13.7454 88.686 14.1283C88.8678 14.5112 89.1304 14.874 89.4939 15.1764C89.8575 15.4585 90.3827 15.781 91.1098 16.0833C91.7158 16.3454 92.1804 16.5469 92.4631 16.7081C92.7459 16.8694 92.9277 17.0508 93.0691 17.1919C93.1701 17.3531 93.2307 17.5547 93.2307 17.8167C93.2307 18.5624 92.6651 18.9252 91.5138 18.9252C91.0694 18.9252 90.6049 18.8446 90.0595 18.6632C89.5141 18.4818 89.0092 18.2198 88.585 17.9174L88.484 17.8368V20.3965L88.5446 20.4167C88.9284 20.5981 89.3929 20.719 89.9585 20.8601C90.5241 20.9609 91.029 21.0415 91.4734 21.0415C92.8267 21.0415 93.9376 20.7392 94.7254 20.074C95.5333 19.4291 95.9575 18.6027 95.9575 17.5345C95.9575 16.7888 95.7555 16.1237 95.3112 15.6198C94.7254 15.1361 93.9982 14.6322 92.9479 14.2291ZM102.886 9.35156C101.048 9.35156 99.5731 9.89574 98.5429 10.964C97.5128 12.0322 96.9876 13.5035 96.9876 15.3578C96.9876 17.0911 97.5128 18.5019 98.5227 19.5299C99.5327 20.5376 100.906 21.0616 102.623 21.0616C104.421 21.0616 105.855 20.5174 106.885 19.4291C107.935 18.3407 108.44 16.8895 108.44 15.0957C108.44 13.3221 107.956 11.9112 106.966 10.8833C106.016 9.85543 104.623 9.35156 102.886 9.35156ZM104.966 17.9376C104.481 18.5624 103.714 18.8647 102.764 18.8647C101.795 18.8647 101.048 18.5624 100.502 17.8973C99.9569 17.2725 99.6943 16.3655 99.6943 15.2167C99.6943 14.0275 99.9771 13.1205 100.502 12.4756C101.048 11.8306 101.795 11.5081 102.744 11.5081C103.653 11.5081 104.401 11.8105 104.926 12.4353C105.451 13.0601 105.734 13.9671 105.734 15.1562C105.734 16.3655 105.471 17.3128 104.966 17.9376ZM122.478 11.75V9.59342H119.832V6.28799L119.752 6.30815L117.247 7.05388L117.186 7.07404V9.59342H113.227V8.18256C113.227 7.5376 113.389 7.03373 113.672 6.71125C113.955 6.38877 114.379 6.22753 114.904 6.22753C115.267 6.22753 115.651 6.30815 116.075 6.48954L116.176 6.55001V4.27249L116.116 4.25233C115.752 4.1314 115.267 4.05078 114.641 4.05078C113.854 4.05078 113.167 4.23218 112.541 4.5345C111.914 4.87714 111.45 5.3407 111.107 5.96551C110.763 6.57016 110.581 7.25543 110.581 8.04148V9.59342H108.743V11.7299H110.581V20.7593H113.227V11.75H117.186V17.4942C117.186 19.8523 118.297 21.0415 120.519 21.0415C120.883 21.0415 121.266 20.981 121.63 20.9205C122.014 20.8399 122.297 20.7392 122.458 20.6585L122.478 20.6384V18.4818L122.377 18.5624C122.216 18.6632 122.074 18.7438 121.832 18.8043C121.63 18.8647 121.448 18.8849 121.307 18.8849C120.782 18.8849 120.418 18.764 120.156 18.4616C119.913 18.1795 119.792 17.7159 119.792 17.0306V11.75H122.478Z" fill="#737373"/>
<path d="M0.5 0H12.8818V12.355H0.5V0Z" fill="#F25022"/>
<path d="M14.1758 0H26.5576V12.355H14.1758V0Z" fill="#7FBA00"/>
<path d="M0.5 13.6445H12.8818V25.9996H0.5V13.6445Z" fill="#00A4EF"/>
<path d="M14.1758 13.6445H26.5576V25.9996H14.1758V13.6445Z" fill="#FFB900"/>
</g>
<defs>
<clipPath id="clip0_129_4218">
<rect width="122" height="26" fill="white" transform="translate(0.5)"/>
</clipPath>
</defs>
</svg>
