<svg width="149" height="91" viewBox="0 0 149 91" fill="none" xmlns="http://www.w3.org/2000/svg">
<g clip-path="url(#clip0_129_4015)">
<path d="M146.249 90.9089C147.707 90.9089 148.889 89.7269 148.889 88.2689C148.889 86.8109 147.707 85.6289 146.249 85.6289C144.791 85.6289 143.609 86.8109 143.609 88.2689C143.609 89.7269 144.791 90.9089 146.249 90.9089Z" fill="white"/>
<path d="M122.312 90.9109C123.77 90.9109 124.952 89.7289 124.952 88.2709C124.952 86.8128 123.77 85.6309 122.312 85.6309C120.854 85.6309 119.672 86.8128 119.672 88.2709C119.672 89.7289 120.854 90.9109 122.312 90.9109Z" fill="white"/>
<path d="M98.3822 90.9094C98.9067 90.9114 99.4201 90.7577 99.8572 90.4677C100.294 90.1777 100.636 89.7645 100.838 89.2804C101.04 88.7964 101.094 88.2633 100.993 87.7486C100.891 87.2338 100.64 86.7607 100.27 86.3891C99.8994 86.0175 99.4273 85.7641 98.913 85.661C98.3986 85.558 97.8653 85.6099 97.3805 85.8101C96.8957 86.0104 96.4812 86.3501 96.1896 86.7861C95.8979 87.2221 95.7422 87.7348 95.7422 88.2594C95.7422 88.9605 96.0201 89.633 96.5149 90.1297C97.0097 90.6263 97.6811 90.9067 98.3822 90.9094Z" fill="white"/>
<path d="M74.4508 90.9094C74.9749 90.9094 75.4873 90.754 75.9231 90.4628C76.3589 90.1716 76.6985 89.7577 76.899 89.2735C77.0996 88.7893 77.1521 88.2564 77.0498 87.7424C76.9476 87.2283 76.6952 86.7562 76.3246 86.3856C75.954 86.015 75.4818 85.7625 74.9678 85.6603C74.4537 85.558 73.9209 85.6105 73.4366 85.8111C72.9524 86.0117 72.5386 86.3513 72.2474 86.7871C71.9563 87.2229 71.8008 87.7352 71.8008 88.2594C71.8008 88.6074 71.8693 88.952 72.0024 89.2735C72.1356 89.595 72.3308 89.8871 72.5769 90.1332C72.823 90.3793 73.1151 90.5745 73.4366 90.7077C73.7582 90.8409 74.1028 90.9094 74.4508 90.9094Z" fill="white"/>
<path d="M50.5111 90.9089C51.9691 90.9089 53.1511 89.7269 53.1511 88.2689C53.1511 86.8109 51.9691 85.6289 50.5111 85.6289C49.0531 85.6289 47.8711 86.8109 47.8711 88.2689C47.8711 89.7269 49.0531 90.9089 50.5111 90.9089Z" fill="white"/>
<path d="M27.5901 90.5962C28.9386 90.0418 29.5823 88.4991 29.0279 87.1506C28.4735 85.8021 26.9308 85.1585 25.5823 85.7129C24.2338 86.2673 23.5901 87.8099 24.1445 89.1584C24.6989 90.5069 26.2416 91.1507 27.5901 90.5962Z" fill="white"/>
<path d="M2.65212 85.6602C2.12715 85.6582 1.61349 85.8122 1.17617 86.1026C0.738848 86.393 0.397631 86.8068 0.195821 87.2915C-0.0059898 87.7761 -0.0593093 88.3097 0.0426225 88.8247C0.144554 89.3397 0.39712 89.8128 0.768331 90.184C1.13954 90.5552 1.6126 90.8078 2.12758 90.9097C2.64256 91.0116 3.17628 90.9583 3.66091 90.7565C4.14554 90.5547 4.55933 90.2135 4.84975 89.7762C5.14018 89.3389 5.29411 88.8252 5.29213 88.3002C5.2895 87.6008 5.01054 86.9308 4.51601 86.4363C4.02148 85.9418 3.35148 85.6628 2.65212 85.6602Z" fill="white"/>
<path d="M146.249 69.5007C147.707 69.5007 148.889 68.3187 148.889 66.8607C148.889 65.4027 147.707 64.2207 146.249 64.2207C144.791 64.2207 143.609 65.4027 143.609 66.8607C143.609 68.3187 144.791 69.5007 146.249 69.5007Z" fill="white"/>
<path d="M122.312 69.5007C123.77 69.5007 124.952 68.3187 124.952 66.8607C124.952 65.4027 123.77 64.2207 122.312 64.2207C120.854 64.2207 119.672 65.4027 119.672 66.8607C119.672 68.3187 120.854 69.5007 122.312 69.5007Z" fill="white"/>
<path d="M98.3822 69.4992C98.9072 69.5012 99.421 69.3472 99.8583 69.0568C100.296 68.7664 100.637 68.3526 100.839 67.8679C101.04 67.3833 101.094 66.8497 100.992 66.3347C100.89 65.8197 100.637 65.3466 100.266 64.9754C99.8949 64.6042 99.4217 64.3516 98.9068 64.2497C98.3918 64.1477 97.8582 64.201 97.3736 64.4029C96.8889 64.6047 96.4751 64.9459 96.1847 65.3832C95.8943 65.8205 95.7402 66.3342 95.7422 66.8592C95.7448 67.5586 96.0239 68.2285 96.5185 68.723C97.013 69.2176 97.6829 69.4966 98.3822 69.4992Z" fill="white"/>
<path d="M74.4508 69.4992C74.9754 69.4992 75.4881 69.3435 75.9241 69.0519C76.3601 68.7603 76.6998 68.3458 76.9 67.861C77.1003 67.3762 77.1522 66.8428 77.0491 66.3285C76.946 65.8142 76.6927 65.342 76.3211 64.9718C75.9495 64.6016 75.4763 64.35 74.9616 64.2489C74.4469 64.1478 73.9138 64.2017 73.4297 64.4038C72.9457 64.6059 72.5326 64.9471 72.2426 65.3842C71.9526 65.8213 71.7988 66.3347 71.8008 66.8592C71.8008 67.2067 71.8694 67.5508 72.0027 67.8718C72.136 68.1927 72.3313 68.4842 72.5775 68.7295C72.8237 68.9748 73.1159 69.169 73.4374 69.3011C73.7589 69.4332 74.1033 69.5005 74.4508 69.4992Z" fill="white"/>
<path d="M50.5111 69.5007C51.9691 69.5007 53.1511 68.3187 53.1511 66.8607C53.1511 65.4027 51.9691 64.2207 50.5111 64.2207C49.0531 64.2207 47.8711 65.4027 47.8711 66.8607C47.8711 68.3187 49.0531 69.5007 50.5111 69.5007Z" fill="white"/>
<path d="M27.5901 69.192C28.9386 68.6375 29.5823 67.0949 29.0279 65.7464C28.4735 64.3979 26.9308 63.7542 25.5823 64.3086C24.2338 64.863 23.5901 66.4057 24.1445 67.7542C24.699 69.1027 26.2416 69.7464 27.5901 69.192Z" fill="white"/>
<path d="M2.65004 69.4992C3.17459 69.4992 3.68731 69.3435 4.12331 69.0519C4.55931 68.7603 4.89899 68.3458 5.09926 67.861C5.29954 67.3762 5.3515 66.8428 5.24843 66.3285C5.14537 65.8142 4.89189 65.342 4.52028 64.9718C4.14867 64.6016 3.67561 64.35 3.16091 64.2489C2.6462 64.1478 2.11309 64.2017 1.62905 64.4038C1.145 64.6059 0.731771 64.9471 0.441791 65.3842C0.151812 65.8213 -0.00196055 66.3347 1.88721e-05 66.8592C1.63788e-05 67.2067 0.0686259 67.5508 0.201923 67.8718C0.33522 68.1927 0.530667 68.4842 0.776874 68.7295C1.02308 68.9748 1.31528 69.169 1.63674 69.3011C1.95819 69.4332 2.30251 69.5005 2.65004 69.4992Z" fill="white"/>
<path d="M146.249 48.0905C147.707 48.0905 148.889 46.9086 148.889 45.4505C148.889 43.9925 147.707 42.8105 146.249 42.8105C144.791 42.8105 143.609 43.9925 143.609 45.4505C143.609 46.9086 144.791 48.0905 146.249 48.0905Z" fill="white"/>
<path d="M122.312 48.0905C123.77 48.0905 124.952 46.9086 124.952 45.4505C124.952 43.9925 123.77 42.8105 122.312 42.8105C120.854 42.8105 119.672 43.9925 119.672 45.4505C119.672 46.9086 120.854 48.0905 122.312 48.0905Z" fill="white"/>
<path d="M98.3822 48.1008C98.9067 48.1028 99.4201 47.9491 99.8572 47.6591C100.294 47.3691 100.636 46.9559 100.838 46.4718C101.04 45.9878 101.094 45.4547 100.993 44.94C100.891 44.4253 100.64 43.9521 100.27 43.5805C99.8994 43.2089 99.4273 42.9555 98.913 42.8524C98.3986 42.7494 97.8653 42.8013 97.3805 43.0015C96.8957 43.2018 96.4812 43.5415 96.1896 43.9775C95.8979 44.4135 95.7422 44.9262 95.7422 45.4508C95.7422 46.1519 96.0201 46.8244 96.5149 47.3211C97.0097 47.8177 97.6811 48.0981 98.3822 48.1008Z" fill="white"/>
<path d="M74.4508 48.1008C74.9749 48.1008 75.4873 47.9454 75.9231 47.6542C76.3589 47.363 76.6985 46.9491 76.899 46.4649C77.0996 45.9807 77.1521 45.4478 77.0498 44.9338C76.9476 44.4197 76.6952 43.9475 76.3246 43.5769C75.954 43.2063 75.4818 42.9539 74.9678 42.8517C74.4537 42.7494 73.9209 42.8019 73.4366 43.0025C72.9524 43.2031 72.5386 43.5427 72.2474 43.9785C71.9563 44.4143 71.8008 44.9266 71.8008 45.4508C71.8008 45.7988 71.8693 46.1434 72.0024 46.4649C72.1356 46.7864 72.3308 47.0785 72.5769 47.3246C72.823 47.5707 73.1151 47.7659 73.4366 47.8991C73.7582 48.0322 74.1028 48.1008 74.4508 48.1008Z" fill="white"/>
<path d="M50.5111 48.0905C51.9691 48.0905 53.1511 46.9086 53.1511 45.4505C53.1511 43.9925 51.9691 42.8105 50.5111 42.8105C49.0531 42.8105 47.8711 43.9925 47.8711 45.4505C47.8711 46.9086 49.0531 48.0905 50.5111 48.0905Z" fill="white"/>
<path d="M27.5901 47.7915C28.9386 47.2371 29.5823 45.6944 29.0279 44.3459C28.4735 42.9974 26.9308 42.3538 25.5823 42.9082C24.2338 43.4626 23.5901 45.0052 24.1445 46.3537C24.6989 47.7022 26.2416 48.346 27.5901 47.7915Z" fill="white"/>
<path d="M2.65002 48.1008C3.17414 48.1008 3.68652 47.9454 4.12231 47.6542C4.5581 47.363 4.89769 46.9491 5.09827 46.4649C5.29884 45.9807 5.3514 45.4478 5.24915 44.9338C5.14689 44.4197 4.89454 43.9475 4.52393 43.5769C4.15332 43.2063 3.68104 42.9539 3.16699 42.8517C2.65294 42.7494 2.12021 42.8019 1.63599 43.0025C1.15176 43.2031 0.737841 43.5427 0.446655 43.9785C0.15547 44.4143 0 44.9266 0 45.4508C0 46.1536 0.279274 46.8276 0.776245 47.3246C1.27322 47.8216 1.9472 48.1008 2.65002 48.1008Z" fill="white"/>
<path d="M146.249 26.6902C147.707 26.6902 148.889 25.5082 148.889 24.0502C148.889 22.5921 147.707 21.4102 146.249 21.4102C144.791 21.4102 143.609 22.5921 143.609 24.0502C143.609 25.5082 144.791 26.6902 146.249 26.6902Z" fill="white"/>
<path d="M122.312 26.6902C123.77 26.6902 124.952 25.5082 124.952 24.0502C124.952 22.5921 123.77 21.4102 122.312 21.4102C120.854 21.4102 119.672 22.5921 119.672 24.0502C119.672 25.5082 120.854 26.6902 122.312 26.6902Z" fill="white"/>
<path d="M98.3822 26.6594C98.9072 26.6614 99.421 26.5074 99.8583 26.2169C100.296 25.9265 100.637 25.5127 100.839 25.0281C101.04 24.5435 101.094 24.0098 100.992 23.4948C100.89 22.9799 100.637 22.5068 100.266 22.1356C99.8949 21.7644 99.4217 21.5117 98.9068 21.4098C98.3918 21.3079 97.8582 21.3612 97.3736 21.563C96.8889 21.7648 96.4751 22.106 96.1847 22.5434C95.8943 22.9807 95.7402 23.4944 95.7422 24.0194C95.7448 24.7187 96.0239 25.3887 96.5185 25.8833C97.013 26.3778 97.6829 26.6567 98.3822 26.6594Z" fill="white"/>
<path d="M74.4508 26.6594C74.9754 26.6594 75.4881 26.5037 75.9241 26.2121C76.3601 25.9204 76.6998 25.506 76.9 25.0212C77.1003 24.5364 77.1522 24.0031 77.0491 23.4887C76.946 22.9744 76.6927 22.5022 76.3211 22.132C75.9495 21.7618 75.4763 21.5102 74.9616 21.4091C74.4469 21.308 73.9138 21.3619 73.4297 21.564C72.9457 21.7661 72.5326 22.1073 72.2426 22.5444C71.9526 22.9815 71.7988 23.4948 71.8008 24.0194C71.8008 24.3669 71.8694 24.7111 72.0027 25.032C72.136 25.353 72.3313 25.6444 72.5775 25.8897C72.8237 26.1349 73.1159 26.3292 73.4374 26.4613C73.7589 26.5934 74.1033 26.6607 74.4508 26.6594Z" fill="white"/>
<path d="M50.5111 26.6902C51.9691 26.6902 53.1511 25.5082 53.1511 24.0502C53.1511 22.5921 51.9691 21.4102 50.5111 21.4102C49.0531 21.4102 47.8711 22.5921 47.8711 24.0502C47.8711 25.5082 49.0531 26.6902 50.5111 26.6902Z" fill="white"/>
<path d="M27.594 26.3892C28.9425 25.8348 29.5863 24.2922 29.0318 22.9437C28.4774 21.5952 26.9347 20.9514 25.5862 21.5059C24.2377 22.0603 23.594 23.603 24.1484 24.9515C24.7029 26.3 26.2455 26.9437 27.594 26.3892Z" fill="white"/>
<path d="M2.65004 26.6594C3.17459 26.6594 3.68731 26.5037 4.12331 26.2121C4.55931 25.9204 4.89899 25.506 5.09926 25.0212C5.29954 24.5364 5.3515 24.0031 5.24843 23.4887C5.14537 22.9744 4.89189 22.5022 4.52028 22.132C4.14867 21.7618 3.67561 21.5102 3.16091 21.4091C2.6462 21.308 2.11309 21.3619 1.62905 21.564C1.145 21.7661 0.731771 22.1073 0.441791 22.5444C0.151812 22.9815 -0.00196055 23.4948 1.88721e-05 24.0194C1.63788e-05 24.3669 0.0686259 24.7111 0.201923 25.032C0.33522 25.353 0.530667 25.6444 0.776874 25.8897C1.02308 26.1349 1.31528 26.3292 1.63674 26.4613C1.95819 26.5934 2.30251 26.6607 2.65004 26.6594Z" fill="white"/>
<path d="M146.249 5.28C147.707 5.28 148.889 4.09803 148.889 2.64C148.889 1.18197 147.707 0 146.249 0C144.791 0 143.609 1.18197 143.609 2.64C143.609 4.09803 144.791 5.28 146.249 5.28Z" fill="white"/>
<path d="M122.312 5.28C123.77 5.28 124.952 4.09803 124.952 2.64C124.952 1.18197 123.77 0 122.312 0C120.854 0 119.672 1.18197 119.672 2.64C119.672 4.09803 120.854 5.28 122.312 5.28Z" fill="white"/>
<path d="M98.3822 5.29024C98.9067 5.29222 99.4201 5.13851 99.8572 4.84853C100.294 4.55855 100.636 4.14532 100.838 3.66127C101.04 3.17723 101.094 2.64412 100.993 2.12941C100.891 1.61471 100.64 1.14159 100.27 0.769978C99.8994 0.398368 99.4273 0.144953 98.913 0.0418894C98.3986 -0.0611745 97.8653 -0.00927669 97.3805 0.190998C96.8957 0.391273 96.4812 0.730946 96.1896 1.16695C95.8979 1.60295 95.7422 2.11567 95.7422 2.64022C95.7422 3.34131 96.0201 4.01383 96.5149 4.51052C97.0097 5.0072 97.6811 5.2876 98.3822 5.29024Z" fill="white"/>
<path d="M74.4508 5.29023C74.9749 5.29023 75.4873 5.13483 75.9231 4.84364C76.3589 4.55245 76.6985 4.13859 76.899 3.65437C77.0996 3.17015 77.1521 2.63729 77.0498 2.12324C76.9476 1.60919 76.6952 1.13698 76.3246 0.76637C75.954 0.395761 75.4818 0.143401 74.9678 0.04115C74.4537 -0.0611008 73.9209 -0.00860433 73.4366 0.191968C72.9524 0.39254 72.5386 0.732191 72.2474 1.16798C71.9563 1.60377 71.8008 2.11609 71.8008 2.64021C71.8008 2.98821 71.8693 3.33286 72.0024 3.65437C72.1356 3.97588 72.3308 4.26798 72.5769 4.51405C72.823 4.76013 73.1151 4.95534 73.4366 5.08851C73.7582 5.22169 74.1028 5.29023 74.4508 5.29023Z" fill="white"/>
<path d="M50.5111 5.28C51.9691 5.28 53.1511 4.09803 53.1511 2.64C53.1511 1.18197 51.9691 0 50.5111 0C49.0531 0 47.8711 1.18197 47.8711 2.64C47.8711 4.09803 49.0531 5.28 50.5111 5.28Z" fill="white"/>
<path d="M27.5901 4.97708C28.9386 4.42265 29.5823 2.87999 29.0279 1.53149C28.4735 0.182988 26.9308 -0.460681 25.5823 0.0937553C24.2338 0.648191 23.5901 2.19079 24.1445 3.53929C24.6989 4.88779 26.2416 5.53152 27.5901 4.97708Z" fill="white"/>
<path d="M2.65002 5.29023C3.17414 5.29023 3.68652 5.13483 4.12231 4.84364C4.5581 4.55245 4.89769 4.13859 5.09827 3.65437C5.29884 3.17015 5.3514 2.63729 5.24915 2.12324C5.14689 1.60919 4.89454 1.13698 4.52393 0.76637C4.15332 0.395761 3.68104 0.143401 3.16699 0.04115C2.65294 -0.0611008 2.12021 -0.00860433 1.63599 0.191968C1.15176 0.39254 0.737841 0.732191 0.446655 1.16798C0.15547 1.60377 0 2.11609 0 2.64021C0 3.34303 0.279274 4.01708 0.776245 4.51405C1.27322 5.01102 1.9472 5.29023 2.65002 5.29023Z" fill="white"/>
</g>
<defs>
<clipPath id="clip0_129_4015">
<rect width="148.89" height="90.91" fill="white"/>
</clipPath>
</defs>
</svg>
