<svg width="214" height="45" viewBox="0 0 214 45" fill="none" xmlns="http://www.w3.org/2000/svg">
<g clip-path="url(#clip0_2_3095)">
<path d="M21.2432 43.2744C20.97 43.2744 20.7466 43.0502 20.7466 42.7762V25.015H14.7874C12.7762 25.015 11.2119 25.9865 10.616 27.6057C10.0449 29.1502 10.467 30.869 11.7333 31.965C13.0493 33.1358 15.2095 33.0113 16.5255 31.691C17.0717 31.143 17.3945 30.296 17.3449 29.4989C17.32 28.9758 17.1462 28.2035 16.4013 27.6057C15.9047 27.1822 15.1847 26.9829 14.5143 27.0328C14.117 27.0826 13.5459 27.232 13.1238 27.7552C12.9003 28.0541 12.7762 28.4527 12.8258 28.8761C12.8755 29.3245 13.0741 29.6982 13.3721 29.9224C13.7445 30.2213 14.1666 30.3459 14.5143 30.2213C14.7626 30.1466 14.9612 29.9224 15.0357 29.6235C15.1102 29.3494 15.3833 29.2 15.6316 29.2747C15.9047 29.3494 16.0537 29.6235 15.9792 29.8726C15.8054 30.4953 15.3833 30.9686 14.8122 31.1679C14.1666 31.3921 13.3721 31.2177 12.7513 30.6946C12.2547 30.296 11.9319 29.6733 11.8575 28.9758C11.783 28.2783 11.9816 27.6057 12.3789 27.1075C12.9003 26.4847 13.6204 26.0861 14.4398 26.0114C15.3585 25.9118 16.3765 26.2356 17.0469 26.8086C17.8415 27.4562 18.2884 28.4028 18.3381 29.4242C18.3877 30.5202 17.9656 31.6163 17.2207 32.3636C15.5323 34.0575 12.7762 34.207 11.0629 32.6875C9.49861 31.3174 8.95235 29.1501 9.67242 27.2071C10.4422 25.1645 12.3541 23.9688 14.7874 23.9688H21.2432C21.5163 23.9688 21.7398 24.1929 21.7398 24.467V42.7264C21.7398 43.0503 21.5163 43.2744 21.2432 43.2744Z" fill="white"/>
<path d="M25.1489 43.2742C24.8758 43.2742 24.6523 43.05 24.6523 42.776V31.1427C24.6523 30.8687 24.8758 30.6445 25.1489 30.6445C25.4221 30.6445 25.6455 30.8687 25.6455 31.1427V42.776C25.6455 43.05 25.4221 43.2742 25.1489 43.2742Z" fill="white"/>
<path d="M32.1685 43.2742C31.8953 43.2742 31.6719 43.05 31.6719 42.776V31.1427C31.6719 30.8687 31.8953 30.6445 32.1685 30.6445C32.4416 30.6445 32.6651 30.8687 32.6651 31.1427V42.776C32.6651 43.05 32.4416 43.2742 32.1685 43.2742Z" fill="white"/>
<path d="M28.6724 43.2742C28.3993 43.2742 28.1758 43.05 28.1758 42.776V31.1427C28.1758 30.8687 28.3993 30.6445 28.6724 30.6445C28.9455 30.6445 29.169 30.8687 29.169 31.1427V42.776C29.169 43.05 28.9455 43.2742 28.6724 43.2742Z" fill="white"/>
<path d="M32.1758 28.4046H25.1489C24.8758 28.4046 24.6523 28.1804 24.6523 27.9064C24.6523 27.6324 24.8758 27.4082 25.1489 27.4082H32.1758C32.4489 27.4082 32.6724 27.6324 32.6724 27.9064C32.6724 28.1804 32.4489 28.4046 32.1758 28.4046Z" fill="white"/>
<path d="M32.1758 25.1898H25.1489C24.8758 25.1898 24.6523 24.9656 24.6523 24.6916C24.6523 24.4176 24.8758 24.1934 25.1489 24.1934H32.1758C32.4489 24.1934 32.6724 24.4176 32.6724 24.6916C32.6724 24.9656 32.4489 25.1898 32.1758 25.1898Z" fill="white"/>
<path d="M51.853 22.0785H5.44582C5.17269 22.0785 4.94922 21.8543 4.94922 21.5802C4.94922 21.3062 5.17269 21.082 5.44582 21.082H51.853C52.1261 21.082 52.3496 21.3062 52.3496 21.5802C52.3496 21.8543 52.1261 22.0785 51.853 22.0785Z" fill="white"/>
<path d="M36.3325 43.2788C36.0594 43.2788 35.8359 43.0546 35.8359 42.7806V24.4963C35.8359 24.2222 36.0594 23.998 36.3325 23.998H42.7883C45.2217 23.998 47.1336 25.2187 47.9033 27.2364C48.6234 29.1794 48.0771 31.3218 46.5128 32.7167C44.7995 34.2114 42.0434 34.0619 40.355 32.3929C39.6101 31.6456 39.188 30.5495 39.2376 29.4535C39.2873 28.4321 39.7591 27.4855 40.5288 26.8379C41.224 26.2649 42.2172 25.966 43.1359 26.0407C43.9802 26.1154 44.7002 26.4891 45.1968 27.1368C45.5941 27.635 45.7927 28.3076 45.7183 29.0051C45.6438 29.7026 45.321 30.3253 44.8244 30.7239C44.1788 31.247 43.4091 31.4214 42.7635 31.1972C42.1924 30.9979 41.7703 30.5495 41.5965 29.9019C41.522 29.6278 41.671 29.3538 41.9441 29.304C42.2172 29.2293 42.4904 29.3787 42.54 29.6527C42.6145 29.9517 42.7883 30.151 43.0614 30.2506C43.4091 30.3502 43.8312 30.2506 44.2036 29.9517C44.5016 29.7275 44.7002 29.3289 44.7499 28.9054C44.7995 28.4819 44.6754 28.0585 44.4519 27.7845C44.005 27.2364 43.4587 27.087 43.0614 27.062C42.391 26.9873 41.671 27.2115 41.1744 27.635C40.4295 28.2578 40.2557 29.0051 40.2308 29.5282C40.1812 30.3253 40.504 31.1723 41.0502 31.7203C42.3662 33.0406 44.5264 33.1651 45.8424 31.9943C47.1087 30.8983 47.5308 29.1794 46.9597 27.635C46.339 26.0158 44.7995 25.0443 42.7883 25.0443H36.8291V42.8055C36.8291 43.0546 36.6057 43.2788 36.3325 43.2788Z" fill="white"/>
<path d="M26.9166 13.5758C26.7676 13.5758 26.6434 13.5259 26.5441 13.4014C18.7972 4.30903 8.86519 5.45491 6.82913 5.82857V10.1381C6.82913 10.4121 6.60567 10.6363 6.33254 10.6363C6.05941 10.6363 5.83594 10.4121 5.83594 10.1381V5.40509C5.83594 5.1809 5.98492 4.98161 6.20839 4.93179C6.33254 4.90688 9.26247 4.20938 13.3346 4.83215C17.0839 5.40509 22.5713 7.22356 27.289 12.7786C27.4628 12.9779 27.438 13.3017 27.2393 13.4761C27.14 13.5508 27.0407 13.5758 26.9166 13.5758Z" fill="white"/>
<path d="M28.687 13.125C28.4138 13.125 28.1904 12.9008 28.1904 12.6268V11.3065C23.5223 1.49176 13.8138 0.993553 11.5791 0.993553V4.82978C11.5791 5.1038 11.3557 5.32799 11.0825 5.32799C10.8094 5.32799 10.5859 5.1038 10.5859 4.82978V0.520252C10.5859 0.271147 10.7846 0.0469516 11.0329 0.022041C11.157 0.022041 14.2111 -0.202154 17.9853 1.01846C21.4614 2.16435 26.2288 4.80487 29.1091 10.9578C29.1339 11.0325 29.1587 11.1072 29.1587 11.182V12.6268C29.1836 12.9008 28.9601 13.125 28.687 13.125Z" fill="white"/>
<path d="M2.46144 16.1391C2.18831 16.1391 1.96484 15.9149 1.96484 15.6409V10.8331C1.96484 10.6089 2.13865 10.3847 2.36212 10.3349C2.90838 10.2104 15.6958 7.61966 25.5781 13.4986C25.8264 13.648 25.9009 13.9469 25.7519 14.1711C25.6029 14.4202 25.305 14.495 25.0815 14.3455C16.4904 9.21394 5.21756 10.8331 2.98287 11.2317V15.616C2.95804 15.9149 2.73457 16.1391 2.46144 16.1391Z" fill="white"/>
<path d="M30.4145 13.5792C30.2903 13.5792 30.191 13.5294 30.0917 13.4546C29.893 13.2803 29.8682 12.9564 30.042 12.7571C34.7597 7.22699 40.2471 5.38361 43.9964 4.81066C48.0685 4.1879 50.9985 4.88539 51.1226 4.91031C51.3461 4.96013 51.4951 5.15941 51.4951 5.38361V10.0917C51.4951 10.3657 51.2716 10.5899 50.9985 10.5899C50.7253 10.5899 50.5019 10.3657 50.5019 10.0917V5.832C48.441 5.48325 38.5339 4.33736 30.7869 13.4048C30.6876 13.5294 30.5634 13.5792 30.4145 13.5792Z" fill="white"/>
<path d="M28.6802 13.1299C28.4071 13.1299 28.1836 12.9057 28.1836 12.6317V11.1869C28.1836 11.1122 28.2084 11.0374 28.2333 10.9627C31.1135 4.80979 35.8809 2.16927 39.3571 1.02338C43.1312 -0.197239 46.1853 0.00204596 46.3094 0.0269565C46.5577 0.0518671 46.7564 0.251152 46.7564 0.525168V4.8347C46.7564 5.10871 46.5329 5.33291 46.2598 5.33291C45.9867 5.33291 45.7632 5.10871 45.7632 4.8347V0.998469C43.5285 0.998469 33.82 1.49668 29.152 11.2865V12.6068C29.1768 12.9057 28.9533 13.1299 28.6802 13.1299Z" fill="white"/>
<path d="M54.9007 16.1415C54.6276 16.1415 54.4041 15.9173 54.4041 15.6433V11.259C52.1694 10.8605 40.8966 9.24127 32.3054 14.3728C32.0571 14.5223 31.7592 14.4227 31.635 14.1985C31.4861 13.9494 31.5605 13.6504 31.8088 13.5259C41.6912 7.64699 54.4786 10.2626 55.0248 10.3622C55.2483 10.4121 55.4221 10.6114 55.4221 10.8605V15.6682C55.3973 15.9173 55.1738 16.1415 54.9007 16.1415Z" fill="white"/>
<path d="M55.7929 18.459H1.53946C0.695238 18.459 0 17.7865 0 16.9395C0 16.0925 0.695238 15.395 1.53946 15.395H24.1099C24.4327 13.7011 26.3446 12.3809 28.6786 12.3809C30.9878 12.3809 32.9245 13.7011 33.2473 15.395H55.8177C56.6619 15.395 57.3571 16.0925 57.3571 16.9395C57.3571 17.7865 56.6619 18.459 55.7929 18.459ZM1.53946 16.3915C1.2415 16.3915 0.993197 16.6157 0.993197 16.9395C0.993197 17.2384 1.2415 17.4875 1.53946 17.4875H55.7929C56.0908 17.4875 56.3391 17.2384 56.3391 16.9395C56.3391 16.6406 56.0908 16.3915 55.7929 16.3915H32.7755C32.5024 16.3915 32.2789 16.1673 32.2789 15.8932C32.2789 14.4983 30.665 13.3773 28.6786 13.3773C26.6922 13.3773 25.0782 14.4983 25.0782 15.8932C25.0782 16.1673 24.8548 16.3915 24.5816 16.3915H1.53946Z" fill="#F77761"/>
<path d="M68.0065 4.3273H71.5627V16.4557H77.8511V19.407H67.9961L68.0065 4.3273Z" fill="white"/>
<path d="M83.2036 8.62387V19.407H79.8143V8.62387H83.2036ZM83.214 4.3273V7.41416H79.8038V4.3273H83.214Z" fill="white"/>
<path d="M91.9966 19.6156C91.5169 19.6156 91.0928 19.553 90.7244 19.4279C90.3559 19.3027 90.0361 19.1324 89.7649 18.9169C89.4938 18.6944 89.2678 18.4372 89.0871 18.1452C88.9063 17.8462 88.7603 17.5299 88.6491 17.1962L88.2319 19.407H85.6978V3.91016H89.2539V9.96916C89.3999 9.71192 89.5807 9.48944 89.7962 9.30173C90.0187 9.10706 90.2655 8.94716 90.5366 8.82201C90.8147 8.68992 91.1067 8.58911 91.4126 8.51959C91.7185 8.45006 92.0384 8.4153 92.3721 8.4153C93.7 8.4153 94.7394 8.90544 95.4902 9.88573C96.2411 10.8591 96.6165 12.2148 96.6165 13.9529C96.6165 15.0931 96.4392 16.0873 96.0846 16.9354C95.7301 17.7836 95.2086 18.4441 94.5204 18.9169C93.839 19.3827 92.9978 19.6156 91.9966 19.6156ZM91.1832 17.1023C91.7463 17.1023 92.2156 16.8659 92.5911 16.3932C92.9734 15.9134 93.1646 15.0931 93.1646 13.932C93.1646 12.8683 92.9769 12.107 92.6015 11.6482C92.233 11.1823 91.7568 10.9494 91.1728 10.9494C90.7695 10.9494 90.4219 11.0537 90.1299 11.2623C89.8449 11.4709 89.6259 11.7976 89.4729 12.2426C89.3269 12.6806 89.2539 13.2437 89.2539 13.932C89.2539 15.1 89.4208 15.9204 89.7545 16.3932C90.0882 16.8659 90.5644 17.1023 91.1832 17.1023Z" fill="white"/>
<path d="M98.4076 19.407V8.62387H101.828V11.3874C101.995 10.8243 102.235 10.3203 102.548 9.8753C102.868 9.42339 103.26 9.06882 103.726 8.81159C104.192 8.54739 104.731 8.4153 105.343 8.4153C105.419 8.4153 105.485 8.41878 105.541 8.42573C105.603 8.42573 105.642 8.43268 105.655 8.44659V11.815C105.621 11.8011 105.576 11.7907 105.52 11.7837C105.471 11.7768 105.419 11.7733 105.363 11.7733C104.682 11.7038 104.119 11.7142 103.674 11.8046C103.236 11.895 102.888 12.041 102.631 12.2426C102.381 12.4442 102.204 12.6841 102.099 12.9622C102.002 13.2403 101.953 13.5427 101.953 13.8694V19.407H98.4076Z" fill="white"/>
<path d="M110.184 19.6156C109.509 19.6156 108.891 19.487 108.327 19.2297C107.771 18.9655 107.326 18.5832 106.993 18.0826C106.666 17.582 106.502 16.9702 106.502 16.2472C106.502 15.0722 106.954 14.1684 107.858 13.5357C108.769 12.9031 110.191 12.5833 112.123 12.5763L113.218 12.5659V12.0132C113.218 11.5891 113.097 11.2727 112.853 11.0642C112.617 10.8486 112.242 10.7443 111.727 10.7513C111.373 10.7583 111.011 10.8452 110.643 11.012C110.274 11.1719 110.01 11.4709 109.85 11.9089H106.94C106.982 11.0954 107.222 10.4315 107.66 9.91701C108.105 9.40254 108.692 9.02363 109.422 8.7803C110.159 8.53697 110.983 8.4153 111.894 8.4153C113.069 8.4153 114.001 8.55782 114.689 8.84287C115.377 9.12097 115.871 9.51377 116.17 10.0213C116.469 10.5219 116.618 11.1128 116.618 11.7942V19.407H113.667L113.364 17.6237C113.017 18.3815 112.586 18.903 112.071 19.188C111.564 19.4731 110.935 19.6156 110.184 19.6156ZM111.414 17.3317C111.651 17.3317 111.877 17.29 112.092 17.2066C112.308 17.1232 112.499 17.0084 112.666 16.8624C112.833 16.7095 112.965 16.5426 113.062 16.3619C113.159 16.1811 113.212 15.9864 113.218 15.7779V14.3074L112.342 14.3179C111.981 14.3179 111.606 14.3665 111.216 14.4639C110.834 14.5612 110.511 14.7246 110.246 14.954C109.982 15.1765 109.85 15.4859 109.85 15.8822C109.85 16.3341 110.003 16.6886 110.309 16.9459C110.622 17.2031 110.99 17.3317 111.414 17.3317Z" fill="white"/>
<path d="M119.061 19.407V8.62387H122.482V11.3874C122.648 10.8243 122.888 10.3203 123.201 9.8753C123.521 9.42339 123.914 9.06882 124.38 8.81159C124.845 8.54739 125.384 8.4153 125.996 8.4153C126.073 8.4153 126.139 8.41878 126.194 8.42573C126.257 8.42573 126.295 8.43268 126.309 8.44659V11.815C126.274 11.8011 126.229 11.7907 126.173 11.7837C126.125 11.7768 126.073 11.7733 126.017 11.7733C125.336 11.7038 124.772 11.7142 124.327 11.8046C123.889 11.895 123.542 12.041 123.285 12.2426C123.034 12.4442 122.857 12.6841 122.753 12.9622C122.655 13.2403 122.607 13.5427 122.607 13.8694V19.407H119.061Z" fill="white"/>
<path d="M130.126 22.8484C129.341 22.8484 128.778 22.7789 128.437 22.6399C128.103 22.5008 127.936 22.4313 127.936 22.4313V20.1787L128.99 20.2309C129.49 20.2656 129.886 20.2483 130.178 20.1787C130.47 20.1092 130.686 20.0119 130.825 19.8867C130.971 19.7685 131.068 19.6469 131.117 19.5217C131.173 19.4035 131.211 19.3201 131.232 19.2714L131.357 18.8647L127.165 8.62387H130.669L132.984 15.0687L135.341 8.62387H138.824L134.527 19.1254C134.11 20.1474 133.672 20.9261 133.213 21.4614C132.761 22.0037 132.278 22.3687 131.764 22.5564C131.256 22.7511 130.71 22.8484 130.126 22.8484Z" fill="white"/>
<path d="M151.025 4.11873C152.193 4.11873 153.233 4.35163 154.143 4.81744C155.061 5.2763 155.802 5.91244 156.365 6.72587C156.928 7.53235 157.265 8.45354 157.376 9.48944H153.653C153.57 8.98887 153.41 8.55435 153.174 8.18587C152.944 7.81044 152.638 7.51844 152.256 7.30987C151.88 7.1013 151.432 6.99701 150.911 6.99701C150.306 6.99701 149.777 7.14997 149.325 7.45587C148.874 7.75482 148.522 8.25539 148.272 8.95758C148.029 9.65282 147.907 10.5844 147.907 11.7524C147.907 13.5323 148.178 14.808 148.721 15.5797C149.27 16.3514 150 16.7373 150.911 16.7373C151.432 16.7373 151.88 16.6122 152.256 16.3619C152.638 16.1116 152.944 15.7779 153.174 15.3607C153.41 14.9366 153.57 14.4778 153.653 13.9842H157.376C157.279 14.7281 157.102 15.4407 156.844 16.122C156.594 16.7964 156.229 17.3978 155.749 17.9262C155.27 18.4545 154.644 18.8682 153.872 19.1672C153.108 19.4661 152.159 19.6156 151.025 19.6156C149.593 19.6156 148.352 19.2819 147.302 18.6144C146.252 17.9401 145.439 17.0084 144.862 15.8196C144.285 14.6307 143.996 13.2576 143.996 11.7003C143.996 10.1499 144.281 8.80811 144.852 7.67487C145.422 6.54163 146.232 5.66563 147.281 5.04687C148.338 4.42811 149.586 4.11873 151.025 4.11873Z" fill="white"/>
<path d="M164.36 19.6156C163.276 19.6156 162.334 19.3862 161.534 18.9273C160.735 18.4615 160.112 17.8149 159.667 16.9876C159.229 16.1533 159.01 15.1834 159.01 14.078C159.01 12.9517 159.233 11.9645 159.678 11.1163C160.13 10.2612 160.759 9.5972 161.565 9.12444C162.372 8.65168 163.307 8.4153 164.371 8.4153C165.469 8.4153 166.415 8.65516 167.207 9.13487C168.007 9.60763 168.622 10.2716 169.053 11.1267C169.484 11.9749 169.7 12.9587 169.7 14.078C169.7 15.1556 169.484 16.1116 169.053 16.9459C168.629 17.7732 168.017 18.4267 167.218 18.9064C166.418 19.3792 165.466 19.6156 164.36 19.6156ZM164.371 17.0084C164.857 17.0084 165.236 16.859 165.507 16.56C165.779 16.2541 165.97 15.8683 166.081 15.4024C166.192 14.9297 166.248 14.45 166.248 13.9633C166.248 13.4836 166.196 13.0143 166.091 12.5554C165.987 12.0966 165.799 11.7212 165.528 11.4292C165.257 11.1302 164.871 10.9807 164.371 10.9807C163.884 10.9807 163.502 11.1267 163.224 11.4187C162.952 11.7038 162.758 12.0757 162.64 12.5346C162.528 12.9865 162.473 13.4627 162.473 13.9633C162.473 14.4361 162.525 14.9088 162.629 15.3816C162.74 15.8474 162.932 16.2367 163.203 16.5496C163.481 16.8555 163.87 17.0084 164.371 17.0084Z" fill="white"/>
<path d="M175.35 19.6156C174.884 19.6156 174.412 19.5391 173.932 19.3862C173.452 19.2332 173.011 19.0107 172.607 18.7187C172.204 18.4198 171.877 18.0583 171.627 17.6342C171.384 17.2031 171.262 16.7095 171.262 16.1533V8.62387H174.818V15.6736C174.818 16.0768 174.957 16.414 175.235 16.6852C175.513 16.9493 175.913 17.0814 176.435 17.0814C176.935 17.0814 177.332 16.9528 177.624 16.6956C177.916 16.4314 178.062 16.0838 178.062 15.6527V8.62387H181.586V19.407H178.938L178.52 17.2274C178.388 17.9018 178.145 18.4128 177.79 18.7604C177.436 19.1011 177.036 19.3271 176.591 19.4383C176.153 19.5565 175.739 19.6156 175.35 19.6156Z" fill="white"/>
<path d="M183.832 19.407V8.62387H187.253V11.3874C187.42 10.8243 187.66 10.3203 187.972 9.8753C188.292 9.42339 188.685 9.06882 189.151 8.81159C189.617 8.54739 190.155 8.4153 190.767 8.4153C190.844 8.4153 190.91 8.41878 190.965 8.42573C191.028 8.42573 191.066 8.43268 191.08 8.44659V11.815C191.045 11.8011 191 11.7907 190.945 11.7837C190.896 11.7768 190.844 11.7733 190.788 11.7733C190.107 11.7038 189.544 11.7142 189.099 11.8046C188.661 11.895 188.313 12.041 188.056 12.2426C187.806 12.4442 187.628 12.6841 187.524 12.9622C187.427 13.2403 187.378 13.5427 187.378 13.8694V19.407H183.832Z" fill="white"/>
<path d="M196.921 19.6156C196.171 19.6156 195.437 19.4904 194.721 19.2402C194.005 18.9899 193.393 18.5901 192.886 18.0409C192.378 17.4916 192.051 16.7755 191.905 15.8926H194.95C195.041 16.2611 195.204 16.5426 195.441 16.7373C195.677 16.932 195.931 17.0641 196.202 17.1336C196.473 17.2031 196.706 17.2379 196.901 17.2379C197.415 17.2379 197.832 17.1649 198.152 17.0189C198.472 16.8729 198.632 16.6504 198.632 16.3514C198.632 16.1012 198.531 15.9065 198.329 15.7674C198.135 15.6214 197.794 15.5067 197.307 15.4233L195.555 15.1C194.568 14.9123 193.769 14.5682 193.157 14.0676C192.552 13.5601 192.246 12.844 192.239 11.9193C192.232 11.2588 192.409 10.6644 192.771 10.136C193.132 9.60763 193.664 9.19049 194.366 8.88458C195.069 8.57173 195.931 8.4153 196.953 8.4153C198.35 8.4153 199.463 8.7212 200.29 9.33301C201.117 9.94482 201.534 10.7895 201.541 11.8672H198.621C198.545 11.4987 198.347 11.2206 198.027 11.0329C197.714 10.8382 197.339 10.7409 196.901 10.7409C196.456 10.7409 196.08 10.8173 195.774 10.9703C195.475 11.1163 195.326 11.3388 195.326 11.6377C195.326 11.8672 195.458 12.0514 195.722 12.1904C195.986 12.3295 196.407 12.4546 196.984 12.5659L198.559 12.8892C199.205 13.0491 199.73 13.2646 200.133 13.5357C200.537 13.7999 200.846 14.0884 201.062 14.4013C201.284 14.7142 201.437 15.027 201.52 15.3399C201.604 15.6458 201.646 15.9169 201.646 16.1533C201.646 16.8972 201.44 17.5264 201.03 18.0409C200.62 18.5553 200.057 18.9482 199.341 19.2193C198.632 19.4835 197.825 19.6156 196.921 19.6156Z" fill="white"/>
<path d="M206.532 14.8289C206.525 15.3225 206.601 15.7396 206.761 16.0803C206.921 16.414 207.147 16.6678 207.439 16.8416C207.731 17.0154 208.072 17.1023 208.461 17.1023C208.906 17.1023 209.299 17.0119 209.64 16.8312C209.987 16.6434 210.241 16.3202 210.401 15.8613H213.571C213.453 16.6469 213.14 17.3213 212.633 17.8844C212.132 18.4406 211.52 18.8682 210.797 19.1672C210.074 19.4661 209.327 19.6156 208.555 19.6156C207.457 19.6156 206.49 19.3896 205.656 18.9377C204.829 18.4858 204.182 17.8497 203.716 17.0293C203.257 16.2089 203.028 15.246 203.028 14.1406C203.028 13.0908 203.24 12.1348 203.664 11.2727C204.088 10.4037 204.7 9.71192 205.499 9.19744C206.299 8.67601 207.262 8.4153 208.388 8.4153C209.528 8.4153 210.481 8.65516 211.246 9.13487C212.01 9.60763 212.584 10.2612 212.966 11.0954C213.356 11.9228 213.55 12.8718 213.55 13.9424V14.8289H206.532ZM206.521 12.7849H210.255C210.255 12.4303 210.185 12.107 210.046 11.815C209.907 11.5161 209.699 11.2797 209.421 11.1059C209.142 10.9321 208.798 10.8452 208.388 10.8452C208.013 10.8452 207.686 10.939 207.408 11.1267C207.13 11.3075 206.911 11.5473 206.751 11.8463C206.591 12.1383 206.514 12.4512 206.521 12.7849Z" fill="white"/>
<path d="M67.7852 37.5997V28.3192H73.6122L73.6058 29.3654H68.9736V32.3947H73.1458V33.4344H68.9672V36.5279L73.7336 36.5407V37.5997H67.7852Z" fill="#F77761"/>
<path d="M75.3044 37.5997V30.9634H76.4481V31.9261C76.5546 31.7422 76.7015 31.5689 76.8889 31.4063C77.0806 31.2437 77.3106 31.1132 77.579 31.0148C77.8516 30.9164 78.1647 30.8672 78.5182 30.8672C78.9357 30.8672 79.319 30.9506 79.6683 31.1175C80.0218 31.2843 80.303 31.5453 80.5117 31.9005C80.7247 32.2513 80.8312 32.7049 80.8312 33.2611V37.5997H79.6491V33.3766C79.6491 32.8589 79.5128 32.476 79.2402 32.2278C78.9719 31.9754 78.6226 31.8491 78.1924 31.8491C77.8942 31.8491 77.6152 31.8983 77.3554 31.9967C77.0955 32.0909 76.8847 32.2364 76.7228 32.4332C76.561 32.6257 76.48 32.8696 76.48 33.1648V37.5997H75.3044Z" fill="#F77761"/>
<path d="M82.6796 37.5997V28.0625H83.8296V31.939C83.9404 31.755 84.0895 31.5839 84.2769 31.4255C84.4643 31.263 84.6922 31.1325 84.9606 31.034C85.2289 30.9314 85.5399 30.88 85.8934 30.88C86.3236 30.88 86.7134 30.9613 87.0626 31.1239C87.4119 31.2822 87.6888 31.509 87.8933 31.8042C88.0977 32.0994 88.1999 32.4503 88.1999 32.8568V37.5997H87.0179V33.0942C87.0179 32.6963 86.8816 32.3904 86.609 32.1765C86.3406 31.9582 85.9892 31.8491 85.5548 31.8491C85.2608 31.8491 84.984 31.8983 84.7241 31.9967C84.4643 32.0909 84.2535 32.2364 84.0916 32.4332C83.934 32.6257 83.8552 32.8717 83.8552 33.1712V37.5997H82.6796Z" fill="#F77761"/>
<path d="M91.8446 37.728C91.4187 37.728 91.0417 37.6532 90.7137 37.5034C90.3857 37.3494 90.128 37.129 89.9406 36.8424C89.7575 36.5557 89.6659 36.2091 89.6659 35.8026C89.6659 35.0667 89.9215 34.519 90.4326 34.1596C90.9438 33.8002 91.7637 33.6077 92.8925 33.582L94.0745 33.5499V33.03C94.0745 32.6236 93.9531 32.3027 93.7103 32.0673C93.4675 31.8277 93.0906 31.7079 92.5794 31.7079C92.2003 31.7122 91.8659 31.8021 91.5763 31.9775C91.2909 32.1529 91.1056 32.4396 91.0204 32.8375H89.979C90.0045 32.4054 90.1259 32.0417 90.3432 31.7464C90.5604 31.4469 90.8628 31.2202 91.2504 31.0661C91.6423 30.9121 92.1045 30.8351 92.6369 30.8351C93.212 30.8351 93.689 30.9164 94.0681 31.079C94.4515 31.2416 94.7369 31.4812 94.9243 31.7978C95.116 32.1144 95.2118 32.5038 95.2118 32.9659V37.5997H94.2023L94.1192 36.3546C93.8637 36.8723 93.5378 37.2317 93.1417 37.4328C92.7498 37.6296 92.3175 37.728 91.8446 37.728ZM92.2024 36.8744C92.4239 36.8744 92.6433 36.8338 92.8605 36.7525C93.082 36.6712 93.2844 36.5621 93.4675 36.4252C93.6507 36.284 93.7955 36.1278 93.902 35.9567C94.0128 35.7812 94.0703 35.6015 94.0745 35.4176V34.2816L93.0906 34.3008C92.5879 34.3094 92.1662 34.3607 91.8255 34.4548C91.489 34.549 91.2355 34.6966 91.0651 34.8977C90.899 35.0988 90.816 35.3619 90.816 35.6871C90.816 36.0594 90.9438 36.3503 91.1993 36.56C91.4592 36.7696 91.7935 36.8744 92.2024 36.8744Z" fill="#F77761"/>
<path d="M97.2302 37.5997V30.9634H98.3739V31.9261C98.4804 31.7422 98.6274 31.5689 98.8148 31.4063C99.0065 31.2437 99.2365 31.1132 99.5048 31.0148C99.7775 30.9164 100.091 30.8672 100.444 30.8672C100.862 30.8672 101.245 30.9506 101.594 31.1175C101.948 31.2843 102.229 31.5453 102.438 31.9005C102.651 32.2513 102.757 32.7049 102.757 33.2611V37.5997H101.575V33.3766C101.575 32.8589 101.439 32.476 101.166 32.2278C100.898 31.9754 100.548 31.8491 100.118 31.8491C99.8201 31.8491 99.5411 31.8983 99.2812 31.9967C99.0214 32.0909 98.8105 32.2364 98.6487 32.4332C98.4868 32.6257 98.4059 32.8696 98.4059 33.1648V37.5997H97.2302Z" fill="#F77761"/>
<path d="M107.238 30.8351C107.711 30.8351 108.137 30.9271 108.516 31.1111C108.895 31.2908 109.204 31.5475 109.442 31.8812C109.685 32.215 109.836 32.6086 109.896 33.0621H108.848C108.81 32.8311 108.72 32.6193 108.58 32.4268C108.443 32.2342 108.262 32.0802 108.036 31.9647C107.811 31.8491 107.547 31.7914 107.244 31.7914C106.678 31.7914 106.218 31.9967 105.864 32.4075C105.511 32.8183 105.334 33.4472 105.334 34.2944C105.334 35.0603 105.496 35.6743 105.819 36.1364C106.147 36.5942 106.629 36.8231 107.263 36.8231C107.566 36.8231 107.828 36.7653 108.049 36.6498C108.275 36.53 108.456 36.3738 108.592 36.1813C108.729 35.9845 108.816 35.7748 108.854 35.5523H109.883C109.828 35.9973 109.679 36.3824 109.436 36.7076C109.193 37.0328 108.882 37.2852 108.503 37.4649C108.128 37.6403 107.706 37.728 107.238 37.728C106.646 37.728 106.12 37.5975 105.66 37.3365C105.204 37.0755 104.846 36.6905 104.586 36.1813C104.326 35.6721 104.197 35.0474 104.197 34.3072C104.197 33.6141 104.314 33.0087 104.548 32.4909C104.786 31.9689 105.131 31.5625 105.583 31.2715C106.039 30.9806 106.59 30.8351 107.238 30.8351Z" fill="#F77761"/>
<path d="M112.337 34.5575C112.337 34.9768 112.405 35.3577 112.542 35.6999C112.682 36.038 112.893 36.3075 113.174 36.5086C113.46 36.7097 113.815 36.8103 114.241 36.8103C114.663 36.8103 115.025 36.7119 115.327 36.515C115.634 36.3182 115.83 36.0337 115.915 35.6614H117.033C116.953 36.1107 116.774 36.4894 116.497 36.7974C116.22 37.1055 115.886 37.3387 115.494 37.497C115.102 37.651 114.693 37.728 114.267 37.728C113.649 37.728 113.106 37.5933 112.638 37.3237C112.169 37.0541 111.803 36.6669 111.539 36.162C111.275 35.6572 111.142 35.0517 111.142 34.3457C111.142 33.6483 111.262 33.0365 111.5 32.5102C111.739 31.9839 112.084 31.5732 112.535 31.2779C112.991 30.9827 113.538 30.8351 114.177 30.8351C114.799 30.8351 115.325 30.9699 115.756 31.2394C116.186 31.509 116.512 31.8898 116.733 32.3818C116.959 32.8696 117.072 33.4494 117.072 34.1211V34.5575H112.337ZM112.344 33.7553H115.934C115.934 33.3745 115.871 33.0322 115.743 32.7284C115.615 32.4203 115.419 32.1786 115.155 32.0032C114.895 31.8235 114.567 31.7336 114.171 31.7336C113.758 31.7336 113.415 31.8342 113.142 32.0353C112.874 32.2321 112.672 32.4867 112.535 32.799C112.403 33.1071 112.339 33.4258 112.344 33.7553Z" fill="#F77761"/>
<path d="M122.141 39.7176C121.754 39.7176 121.488 39.6898 121.343 39.6342C121.198 39.5786 121.126 39.5508 121.126 39.5508V38.7806L121.796 38.7934C122.043 38.802 122.248 38.7849 122.41 38.7421C122.572 38.6993 122.702 38.6415 122.8 38.5688C122.897 38.4961 122.972 38.4148 123.023 38.3249C123.079 38.2351 123.123 38.1495 123.157 38.0682L123.387 37.4392L120.806 30.9634H122.001L123.95 36.085L125.886 30.9634H127.042L124.256 38.1003C124.086 38.5196 123.894 38.8469 123.681 39.0822C123.473 39.3176 123.238 39.4823 122.978 39.5764C122.723 39.6706 122.444 39.7176 122.141 39.7176Z" fill="#F77761"/>
<path d="M130.692 37.728C130.083 37.728 129.551 37.5975 129.095 37.3365C128.639 37.0713 128.286 36.684 128.034 36.1749C127.783 35.6657 127.657 35.0432 127.657 34.3072C127.657 33.6141 127.774 33.0065 128.009 32.4845C128.243 31.9625 128.586 31.5582 129.037 31.2715C129.493 30.9806 130.045 30.8351 130.692 30.8351C131.301 30.8351 131.83 30.9699 132.277 31.2394C132.728 31.5047 133.078 31.8962 133.325 32.4139C133.572 32.9316 133.695 33.5627 133.695 34.3072C133.695 34.9833 133.58 35.578 133.35 36.0914C133.124 36.6049 132.788 37.0071 132.341 37.298C131.898 37.5847 131.348 37.728 130.692 37.728ZM130.692 36.791C131.088 36.791 131.423 36.6905 131.695 36.4894C131.968 36.2883 132.175 35.9995 132.315 35.6229C132.456 35.2464 132.526 34.7993 132.526 34.2816C132.526 33.8066 132.464 33.3809 132.341 33.0044C132.217 32.6236 132.019 32.3219 131.746 32.0994C131.478 31.8769 131.127 31.7657 130.692 31.7657C130.292 31.7657 129.953 31.8662 129.676 32.0673C129.399 32.2642 129.189 32.5508 129.044 32.9274C128.903 33.3039 128.833 33.7553 128.833 34.2816C128.833 34.7479 128.897 35.1715 129.025 35.5523C129.152 35.9331 129.353 36.2348 129.625 36.4573C129.898 36.6798 130.253 36.791 130.692 36.791Z" fill="#F77761"/>
<path d="M137.57 37.728C137.225 37.7238 136.899 37.6746 136.592 37.5804C136.29 37.482 136.021 37.3387 135.787 37.1504C135.553 36.9622 135.368 36.729 135.231 36.4509C135.099 36.1685 135.033 35.8411 135.033 35.4689V30.9634H136.215V35.347C136.215 35.7791 136.347 36.13 136.611 36.3995C136.88 36.6691 137.282 36.8038 137.819 36.8038C138.305 36.8038 138.694 36.6776 138.988 36.4252C139.286 36.1685 139.436 35.7877 139.436 35.2828V30.9634H140.611V37.5997H139.672L139.551 36.3289C139.47 36.6626 139.331 36.9322 139.135 37.1376C138.944 37.343 138.711 37.4949 138.439 37.5933C138.17 37.6874 137.881 37.7323 137.57 37.728Z" fill="#F77761"/>
<path d="M142.53 37.5997V30.9634H143.654V32.2406C143.765 31.924 143.92 31.663 144.12 31.4576C144.321 31.248 144.549 31.0918 144.804 30.9891C145.064 30.8864 145.332 30.8351 145.609 30.8351C145.707 30.8351 145.803 30.8415 145.897 30.8543C145.99 30.8672 146.063 30.8886 146.114 30.9185V32.0673C146.05 32.0374 145.967 32.0181 145.865 32.0096C145.767 31.9967 145.684 31.9903 145.616 31.9903C145.351 31.9732 145.104 31.9903 144.874 32.0417C144.644 32.0887 144.442 32.1722 144.267 32.292C144.093 32.4118 143.954 32.5701 143.852 32.7669C143.754 32.9595 143.705 33.1948 143.705 33.4729V37.5997H142.53Z" fill="#F77761"/>
<path d="M156.23 37.5997H154.978L152.908 34.2687L151.604 35.6229V37.5997H150.429V28.0625H151.604V34.2816L154.71 30.9634H156.064L153.681 33.4921L156.23 37.5997Z" fill="#F77761"/>
<path d="M157.642 37.5997V30.9634H158.785V31.9261C158.892 31.7422 159.039 31.5689 159.226 31.4063C159.418 31.2437 159.648 31.1132 159.916 31.0148C160.189 30.9164 160.502 30.8672 160.856 30.8672C161.273 30.8672 161.656 30.9506 162.006 31.1175C162.359 31.2843 162.64 31.5453 162.849 31.9005C163.062 32.2513 163.169 32.7049 163.169 33.2611V37.5997H161.987V33.3766C161.987 32.8589 161.85 32.476 161.578 32.2278C161.309 31.9754 160.96 31.8491 160.53 31.8491C160.232 31.8491 159.953 31.8983 159.693 31.9967C159.433 32.0909 159.222 32.2364 159.06 32.4332C158.898 32.6257 158.817 32.8696 158.817 33.1648V37.5997H157.642Z" fill="#F77761"/>
<path d="M167.643 37.728C167.034 37.728 166.501 37.5975 166.046 37.3365C165.59 37.0713 165.236 36.684 164.985 36.1749C164.734 35.6657 164.608 35.0432 164.608 34.3072C164.608 33.6141 164.725 33.0065 164.959 32.4845C165.194 31.9625 165.537 31.5582 165.988 31.2715C166.444 30.9806 166.996 30.8351 167.643 30.8351C168.252 30.8351 168.78 30.9699 169.228 31.2394C169.679 31.5047 170.028 31.8962 170.275 32.4139C170.522 32.9316 170.646 33.5627 170.646 34.3072C170.646 34.9833 170.531 35.578 170.301 36.0914C170.075 36.6049 169.739 37.0071 169.291 37.298C168.848 37.5847 168.299 37.728 167.643 37.728ZM167.643 36.791C168.039 36.791 168.373 36.6905 168.646 36.4894C168.919 36.2883 169.125 35.9995 169.266 35.6229C169.406 35.2464 169.477 34.7993 169.477 34.2816C169.477 33.8066 169.415 33.3809 169.291 33.0044C169.168 32.6236 168.97 32.3219 168.697 32.0994C168.429 31.8769 168.077 31.7657 167.643 31.7657C167.243 31.7657 166.904 31.8662 166.627 32.0673C166.35 32.2642 166.139 32.5508 165.995 32.9274C165.854 33.3039 165.784 33.7553 165.784 34.2816C165.784 34.7479 165.848 35.1715 165.975 35.5523C166.103 35.9331 166.303 36.2348 166.576 36.4573C166.849 36.6798 167.204 36.791 167.643 36.791Z" fill="#F77761"/>
<path d="M180.645 30.9634L178.645 37.5997H177.482L175.974 32.7027L174.543 37.5997H173.387L171.348 30.9634H172.441L173.955 36.0658H174.057L175.546 30.9634H176.441L177.987 36.0529H178.089L179.539 30.9634H180.645Z" fill="#F77761"/>
<path d="M183.656 37.6831C183.298 37.6831 183.009 37.6339 182.787 37.5355C182.57 37.4371 182.402 37.3045 182.283 37.1376C182.168 36.9707 182.089 36.7803 182.046 36.5664C182.008 36.3482 181.989 36.1235 181.989 35.8925V28.0625H183.151V35.777C183.151 36.1107 183.215 36.361 183.343 36.5279C183.475 36.6947 183.658 36.7867 183.893 36.8038L184.25 36.8103V37.5804C184.152 37.6104 184.05 37.6339 183.944 37.651C183.837 37.6724 183.741 37.6831 183.656 37.6831Z" fill="#F77761"/>
<path d="M186.538 34.5575C186.538 34.9768 186.606 35.3577 186.743 35.6999C186.883 36.038 187.094 36.3075 187.375 36.5086C187.661 36.7097 188.016 36.8103 188.442 36.8103C188.864 36.8103 189.226 36.7119 189.528 36.515C189.835 36.3182 190.031 36.0337 190.116 35.6614H191.234C191.154 36.1107 190.975 36.4894 190.698 36.7974C190.421 37.1055 190.086 37.3387 189.695 37.497C189.303 37.651 188.894 37.728 188.468 37.728C187.85 37.728 187.307 37.5933 186.839 37.3237C186.37 37.0541 186.004 36.6669 185.74 36.162C185.476 35.6572 185.343 35.0517 185.343 34.3457C185.343 33.6483 185.463 33.0365 185.701 32.5102C185.94 31.9839 186.285 31.5732 186.736 31.2779C187.192 30.9827 187.739 30.8351 188.378 30.8351C189 30.8351 189.526 30.9699 189.957 31.2394C190.387 31.509 190.713 31.8898 190.934 32.3818C191.16 32.8696 191.273 33.4494 191.273 34.1211V34.5575H186.538ZM186.545 33.7553H190.135C190.135 33.3745 190.072 33.0322 189.944 32.7284C189.816 32.4203 189.62 32.1786 189.356 32.0032C189.096 31.8235 188.768 31.7336 188.372 31.7336C187.959 31.7336 187.616 31.8342 187.343 32.0353C187.075 32.2321 186.873 32.4867 186.736 32.799C186.604 33.1071 186.54 33.4258 186.545 33.7553Z" fill="#F77761"/>
<path d="M195.279 37.728C194.422 37.728 193.743 37.4328 193.24 36.8424C192.738 36.2519 192.486 35.3897 192.486 34.2559C192.486 33.567 192.587 32.9659 192.787 32.4524C192.991 31.939 193.294 31.5411 193.694 31.2587C194.094 30.9763 194.593 30.8351 195.189 30.8351C195.504 30.8351 195.783 30.8757 196.026 30.957C196.273 31.0383 196.486 31.141 196.665 31.2651C196.844 31.3892 196.989 31.5175 197.1 31.6502C197.215 31.7828 197.3 31.9048 197.355 32.016V28.0625H198.544V37.5997H197.643L197.515 36.2391C197.472 36.3674 197.404 36.5172 197.31 36.6883C197.217 36.8552 197.085 37.0199 196.914 37.1825C196.744 37.3408 196.524 37.4713 196.256 37.574C195.992 37.6767 195.666 37.728 195.279 37.728ZM195.489 36.8167C196.158 36.8167 196.635 36.6134 196.921 36.207C197.21 35.7962 197.355 35.1266 197.355 34.1981C197.351 33.6804 197.285 33.2397 197.157 32.876C197.034 32.5123 196.838 32.2364 196.569 32.0481C196.305 31.8556 195.954 31.7593 195.515 31.7593C194.97 31.7593 194.527 31.954 194.186 32.3433C193.845 32.7327 193.675 33.3509 193.675 34.1981C193.675 35.0282 193.828 35.6721 194.135 36.13C194.446 36.5878 194.897 36.8167 195.489 36.8167Z" fill="#F77761"/>
<path d="M203.256 39.7946C202.217 39.7946 201.407 39.6428 200.828 39.339C200.253 39.0395 199.965 38.6094 199.965 38.0489C199.965 37.8093 200.021 37.6061 200.132 37.4392C200.242 37.2681 200.374 37.1269 200.528 37.0156C200.681 36.9044 200.824 36.8167 200.956 36.7525C201.088 36.684 201.173 36.6348 201.211 36.6049C201.139 36.5621 201.047 36.5086 200.937 36.4444C200.83 36.3803 200.736 36.2947 200.655 36.1877C200.575 36.0807 200.534 35.9417 200.534 35.7705C200.534 35.5609 200.632 35.3683 200.828 35.1929C201.024 35.0175 201.314 34.887 201.697 34.8014C201.309 34.6046 201.007 34.3436 200.79 34.0184C200.572 33.6932 200.464 33.3403 200.464 32.9595C200.464 32.5316 200.579 32.1593 200.809 31.8427C201.043 31.5261 201.375 31.2843 201.806 31.1175C202.236 30.9463 202.747 30.8608 203.339 30.8608C203.769 30.8608 204.131 30.9121 204.425 31.0148C204.719 31.1132 204.992 31.2544 205.243 31.4384C205.311 31.4084 205.418 31.3635 205.562 31.3036C205.712 31.2394 205.876 31.171 206.054 31.0982C206.233 31.0255 206.399 30.957 206.553 30.8928C206.71 30.8244 206.836 30.773 206.93 30.7388L206.923 31.8363L205.767 32.0545C205.831 32.1914 205.882 32.3412 205.92 32.5038C205.963 32.6664 205.984 32.8183 205.984 32.9595C205.984 33.3488 205.882 33.7018 205.678 34.0184C205.477 34.335 205.173 34.5875 204.764 34.7758C204.355 34.964 203.844 35.0581 203.23 35.0581C203.179 35.0581 203.113 35.0581 203.032 35.0581C202.956 35.0539 202.89 35.0496 202.834 35.0453C202.383 35.0581 202.072 35.1095 201.901 35.1993C201.731 35.2849 201.646 35.3812 201.646 35.4882C201.646 35.6122 201.742 35.6978 201.933 35.7449C202.125 35.7919 202.451 35.8326 202.911 35.8668C203.077 35.8754 203.282 35.8861 203.524 35.8989C203.771 35.9117 204.044 35.9289 204.342 35.9502C205.036 35.993 205.571 36.1706 205.946 36.4829C206.321 36.7953 206.508 37.2167 206.508 37.7473C206.508 38.3506 206.24 38.8426 205.703 39.2234C205.166 39.6042 204.351 39.7946 203.256 39.7946ZM203.467 39.0309C204.076 39.0309 204.542 38.9389 204.866 38.7549C205.19 38.5709 205.352 38.2928 205.352 37.9206C205.352 37.6553 205.252 37.4392 205.051 37.2724C204.855 37.1012 204.555 37.0028 204.15 36.9771L202.298 36.8552C202.131 36.8466 201.959 36.8894 201.78 36.9836C201.601 37.0734 201.448 37.1996 201.32 37.3622C201.196 37.5248 201.135 37.7088 201.135 37.9142C201.135 38.265 201.324 38.5389 201.703 38.7357C202.087 38.9325 202.675 39.0309 203.467 39.0309ZM203.262 34.2944C203.739 34.2944 204.123 34.1832 204.412 33.9607C204.706 33.7382 204.853 33.4087 204.853 32.9723C204.853 32.523 204.706 32.1807 204.412 31.9454C204.123 31.7101 203.739 31.5924 203.262 31.5924C202.781 31.5924 202.391 31.7122 202.093 31.9518C201.799 32.1871 201.652 32.5273 201.652 32.9723C201.652 33.3916 201.793 33.7168 202.074 33.9478C202.355 34.1789 202.751 34.2944 203.262 34.2944Z" fill="#F77761"/>
<path d="M209.051 34.5575C209.051 34.9768 209.119 35.3577 209.255 35.6999C209.396 36.038 209.607 36.3075 209.888 36.5086C210.173 36.7097 210.529 36.8103 210.955 36.8103C211.376 36.8103 211.738 36.7119 212.041 36.515C212.348 36.3182 212.544 36.0337 212.629 35.6614H213.747C213.666 36.1107 213.487 36.4894 213.21 36.7974C212.933 37.1055 212.599 37.3387 212.207 37.497C211.815 37.651 211.406 37.728 210.98 37.728C210.363 37.728 209.82 37.5933 209.351 37.3237C208.882 37.0541 208.516 36.6669 208.252 36.162C207.988 35.6572 207.856 35.0517 207.856 34.3457C207.856 33.6483 207.975 33.0365 208.214 32.5102C208.452 31.9839 208.797 31.5732 209.249 31.2779C209.704 30.9827 210.252 30.8351 210.891 30.8351C211.513 30.8351 212.039 30.9699 212.469 31.2394C212.899 31.509 213.225 31.8898 213.447 32.3818C213.672 32.8696 213.785 33.4494 213.785 34.1211V34.5575H209.051ZM209.057 33.7553H212.648C212.648 33.3745 212.584 33.0322 212.456 32.7284C212.328 32.4203 212.132 32.1786 211.868 32.0032C211.609 31.8235 211.281 31.7336 210.884 31.7336C210.471 31.7336 210.128 31.8342 209.856 32.0353C209.587 32.2321 209.385 32.4867 209.249 32.799C209.117 33.1071 209.053 33.4258 209.057 33.7553Z" fill="#F77761"/>
</g>
<defs>
<clipPath id="clip0_2_3095">
<rect width="213.786" height="44.3214" fill="white"/>
</clipPath>
</defs>
</svg>
